<svg width="30" height="24" viewBox="0 0 30 24" fill="none" xmlns="http://www.w3.org/2000/svg">
<path d="M13 23.7656C13.5625 23.9635 14.1667 23.5521 14.1667 22.9583V3.30208C14.1667 3.08333 14.0833 2.86458 13.9062 2.72917C12.8854 1.91667 10.5417 0.875 7.5 0.875C4.86979 0.875 2.41146 1.56771 0.942708 2.13021C0.354167 2.35938 0 2.94271 0 3.57292V22.8594C0 23.4792 0.666667 23.9115 1.25521 23.7188C2.89583 23.1719 5.49479 22.5417 7.5 22.5417C9.26562 22.5417 11.6146 23.2708 13 23.7656ZM17 23.7656C18.3854 23.2708 20.7344 22.5417 22.5 22.5417C24.5052 22.5417 27.1042 23.1719 28.7448 23.7188C29.3333 23.9167 30 23.4792 30 22.8594V3.57292C30 2.94271 29.6458 2.35938 29.0573 2.13542C27.5885 1.56771 25.1302 0.875 22.5 0.875C19.4583 0.875 17.1146 1.91667 16.0938 2.72917C15.9219 2.86458 15.8333 3.08333 15.8333 3.30208V22.9583C15.8333 23.5521 16.4427 23.9635 17 23.7656Z" fill="white"/>
</svg>
