<svg width="20" height="19" viewBox="0 0 20 19" fill="none" xmlns="http://www.w3.org/2000/svg">
<path d="M1 7V15C1 16.1046 1.89543 17 3 17H9M1 7V3C1 1.89543 1.89543 1 3 1H17C18.1046 1 19 1.89543 19 3V7M1 7H19M19 7V9M16 12.75C16.641 12.75 17.2007 13.1019 17.5002 13.6249M16 12.75C15.3589 12.75 14.7992 13.1019 14.4997 13.6249M16 12.75V11M16 18V16.2209M19 12.75L17.5002 13.6249M13 16.25L14.4997 15.3751M19 16.25L17.5003 15.3752M13 12.75L14.4997 13.6249M14.4997 15.3751C14.3523 15.1177 14.2679 14.8188 14.2679 14.5C14.2679 14.1812 14.3523 13.8823 14.4997 13.6249M14.4997 15.3751C14.8408 15.9707 15.4229 16.2326 16 16.2209M16 16.2209C16.5958 16.2088 17.1862 15.9049 17.5003 15.3752M17.5003 15.3752C17.6458 15.1298 17.732 14.8358 17.732 14.5C17.732 14.1812 17.6477 13.8823 17.5002 13.6249M4 4H4.01M7 4H7.01" stroke="#3A3B3D" stroke-width="1.5" stroke-linecap="round"/>
</svg>
