<svg width="15" height="25" viewBox="0 0 15 25" fill="none" xmlns="http://www.w3.org/2000/svg">
<path d="M0.74376 24.4767C0.408691 24.1415 0.220459 23.687 0.220459 23.2131C0.220459 22.7391 0.408691 22.2846 0.74376 21.9494L10.204 12.4892L0.74376 3.02898C0.418187 2.69189 0.238036 2.24041 0.242108 1.77178C0.24618 1.30315 0.434149 0.854873 0.765531 0.523492C1.09691 0.19211 1.54519 0.00413981 2.01382 6.75647e-05C2.48245 -0.00400468 2.93393 0.176147 3.27102 0.50172L13.9949 11.2256C14.3299 11.5608 14.5182 12.0153 14.5182 12.4892C14.5182 12.9631 14.3299 13.4177 13.9949 13.7528L3.27102 24.4767C2.93585 24.8118 2.48132 25 2.00739 25C1.53346 25 1.07893 24.8118 0.74376 24.4767Z" fill="#CDCDCD"/>
</svg>
