<svg width="407" height="346" viewBox="0 0 407 346" fill="none" xmlns="http://www.w3.org/2000/svg">
<line y1="-0.5" x2="289.957" y2="-0.5" transform="matrix(0.00344868 0.999994 -0.999993 0.00375171 52.5195 13.0019)" stroke="#CCDBE8"/>
<line x1="86.0195" y1="13" x2="86.0195" y2="302.957" stroke="#CCDBE8"/>
<line x1="118.02" y1="13" x2="118.02" y2="302.957" stroke="#CCDBE8"/>
<line x1="150.02" y1="13" x2="150.02" y2="302.957" stroke="#CCDBE8"/>
<line x1="183.059" y1="13.0038" x2="182.02" y2="302.959" stroke="#CCDBE8"/>
<line y1="-0.5" x2="289.957" y2="-0.5" transform="matrix(-0.00344881 0.999994 -0.999993 -0.00375186 215.559 13.0019)" stroke="#CCDBE8"/>
<line x1="248.059" y1="13" x2="248.059" y2="302.957" stroke="#CCDBE8"/>
<line x1="280.059" y1="13" x2="280.059" y2="302.957" stroke="#CCDBE8"/>
<line y1="-0.5" x2="289.957" y2="-0.5" transform="matrix(-0.0062269 0.999981 -0.999977 -0.00672757 313.364 13.0061)" stroke="#CCDBE8"/>
<line y1="-0.5" x2="289.957" y2="-0.5" transform="matrix(-0.00311289 0.999995 -0.999994 -0.00338642 346.267 13.0015)" stroke="#CCDBE8"/>
<line x1="378.767" y1="13" x2="378.767" y2="302.957" stroke="#CCDBE8"/>
<line x1="40" y1="12.5" x2="378" y2="12.5" stroke="#CCDBE8"/>
<line x1="40" y1="42.5" x2="378" y2="42.5" stroke="#CCDBE8"/>
<line x1="40" y1="72.5" x2="378" y2="72.5" stroke="#CCDBE8"/>
<line x1="39.9998" y1="102.638" x2="378" y2="102.515" stroke="#CCDBE8"/>
<line y1="-0.5" x2="338.002" y2="-0.5" transform="matrix(0.999994 -0.00343882 0.0029651 0.999996 40 134.345)" stroke="#CCDBE8"/>
<line x1="40.001" y1="163.845" x2="378.001" y2="164.492" stroke="#CCDBE8"/>
<line x1="40.0009" y1="194.568" x2="378.001" y2="195.154" stroke="#CCDBE8"/>
<line y1="-0.5" x2="338.004" y2="-0.5" transform="matrix(0.99999 0.00448138 -0.00393039 0.999992 40 225.725)" stroke="#CCDBE8"/>
<line y1="-0.5" x2="338.003" y2="-0.5" transform="matrix(0.999991 0.00428553 -0.00375861 0.999993 40 257.311)" stroke="#CCDBE8"/>
<line x1="40" y1="288.328" x2="378" y2="288.328" stroke="#CCDBE8"/>
<path d="M53 288C149.582 262.628 205.852 235.315 257.279 144.26C308.706 53.2061 323.812 49.7701 355 24" stroke="#005CAD" stroke-width="2"/>
<ellipse cx="173.629" cy="239.276" rx="4.62942" ry="4.27586" fill="#C23479"/>
<ellipse cx="260.629" cy="137.276" rx="4.62942" ry="4.27586" fill="#DC743C"/>
<ellipse cx="294.629" cy="84.2759" rx="4.62942" ry="4.27586" fill="#44B44F"/>
<ellipse cx="319.629" cy="53.2759" rx="4.62942" ry="4.27586" fill="#3B378B"/>
<path d="M23.624 12.056H22.376V14H21.356V12.056H17.252V11.156L21.284 5.384H22.376V11.108H23.624V12.056ZM21.356 8.408C21.356 8.2 21.356 8.012 21.356 7.844C21.364 7.668 21.372 7.504 21.38 7.352C21.388 7.2 21.392 7.056 21.392 6.92C21.4 6.776 21.408 6.64 21.416 6.512H21.368C21.304 6.664 21.224 6.828 21.128 7.004C21.032 7.18 20.94 7.328 20.852 7.448L18.284 11.108H21.356V8.408ZM27.1672 8.744C27.7512 8.744 28.2592 8.844 28.6912 9.044C29.1232 9.244 29.4552 9.532 29.6872 9.908C29.9272 10.276 30.0472 10.728 30.0472 11.264C30.0472 11.856 29.9192 12.368 29.6632 12.8C29.4072 13.224 29.0392 13.552 28.5592 13.784C28.0872 14.008 27.5152 14.12 26.8432 14.12C26.4032 14.12 25.9872 14.08 25.5952 14C25.2112 13.92 24.8872 13.804 24.6232 13.652V12.656C24.9112 12.832 25.2592 12.972 25.6672 13.076C26.0832 13.172 26.4792 13.22 26.8552 13.22C27.2792 13.22 27.6472 13.156 27.9592 13.028C28.2792 12.892 28.5272 12.688 28.7032 12.416C28.8792 12.136 28.9672 11.788 28.9672 11.372C28.9672 10.812 28.7952 10.384 28.4512 10.088C28.1072 9.784 27.5632 9.632 26.8192 9.632C26.5952 9.632 26.3392 9.652 26.0512 9.692C25.7632 9.732 25.5312 9.772 25.3552 9.812L24.8272 9.476L25.1512 5.432H29.4472V6.392H26.0512L25.8472 8.876C25.9832 8.852 26.1672 8.824 26.3992 8.792C26.6312 8.76 26.8872 8.744 27.1672 8.744ZM37.0104 9.704C37.0104 10.4 36.9584 11.02 36.8544 11.564C36.7504 12.108 36.5824 12.572 36.3504 12.956C36.1264 13.332 35.8304 13.62 35.4624 13.82C35.1024 14.02 34.6664 14.12 34.1544 14.12C33.5144 14.12 32.9824 13.944 32.5584 13.592C32.1424 13.24 31.8304 12.736 31.6224 12.08C31.4224 11.416 31.3224 10.624 31.3224 9.704C31.3224 8.776 31.4144 7.984 31.5984 7.328C31.7904 6.672 32.0944 6.172 32.5104 5.828C32.9264 5.476 33.4744 5.3 34.1544 5.3C34.7944 5.3 35.3264 5.476 35.7504 5.828C36.1744 6.172 36.4904 6.672 36.6984 7.328C36.9064 7.984 37.0104 8.776 37.0104 9.704ZM32.3784 9.704C32.3784 10.488 32.4344 11.14 32.5464 11.66C32.6664 12.18 32.8544 12.572 33.1104 12.836C33.3744 13.092 33.7224 13.22 34.1544 13.22C34.5864 13.22 34.9304 13.092 35.1864 12.836C35.4504 12.58 35.6424 12.192 35.7624 11.672C35.8824 11.144 35.9424 10.488 35.9424 9.704C35.9424 8.92 35.8824 8.272 35.7624 7.76C35.6424 7.24 35.4504 6.852 35.1864 6.596C34.9304 6.332 34.5864 6.2 34.1544 6.2C33.7224 6.2 33.3744 6.332 33.1104 6.596C32.8544 6.852 32.6664 7.24 32.5464 7.76C32.4344 8.272 32.3784 8.92 32.3784 9.704Z" fill="black"/>
<path d="M23.624 43.056H22.376V45H21.356V43.056H17.252V42.156L21.284 36.384H22.376V42.108H23.624V43.056ZM21.356 39.408C21.356 39.2 21.356 39.012 21.356 38.844C21.364 38.668 21.372 38.504 21.38 38.352C21.388 38.2 21.392 38.056 21.392 37.92C21.4 37.776 21.408 37.64 21.416 37.512H21.368C21.304 37.664 21.224 37.828 21.128 38.004C21.032 38.18 20.94 38.328 20.852 38.448L18.284 42.108H21.356V39.408ZM30.1432 40.704C30.1432 41.4 30.0912 42.02 29.9872 42.564C29.8832 43.108 29.7152 43.572 29.4832 43.956C29.2592 44.332 28.9632 44.62 28.5952 44.82C28.2352 45.02 27.7992 45.12 27.2872 45.12C26.6472 45.12 26.1152 44.944 25.6912 44.592C25.2752 44.24 24.9632 43.736 24.7552 43.08C24.5552 42.416 24.4552 41.624 24.4552 40.704C24.4552 39.776 24.5472 38.984 24.7312 38.328C24.9232 37.672 25.2272 37.172 25.6432 36.828C26.0592 36.476 26.6072 36.3 27.2872 36.3C27.9272 36.3 28.4592 36.476 28.8832 36.828C29.3072 37.172 29.6232 37.672 29.8312 38.328C30.0392 38.984 30.1432 39.776 30.1432 40.704ZM25.5112 40.704C25.5112 41.488 25.5672 42.14 25.6792 42.66C25.7992 43.18 25.9872 43.572 26.2432 43.836C26.5072 44.092 26.8552 44.22 27.2872 44.22C27.7192 44.22 28.0632 44.092 28.3192 43.836C28.5832 43.58 28.7752 43.192 28.8952 42.672C29.0152 42.144 29.0752 41.488 29.0752 40.704C29.0752 39.92 29.0152 39.272 28.8952 38.76C28.7752 38.24 28.5832 37.852 28.3192 37.596C28.0632 37.332 27.7192 37.2 27.2872 37.2C26.8552 37.2 26.5072 37.332 26.2432 37.596C25.9872 37.852 25.7992 38.24 25.6792 38.76C25.5672 39.272 25.5112 39.92 25.5112 40.704ZM37.0104 40.704C37.0104 41.4 36.9584 42.02 36.8544 42.564C36.7504 43.108 36.5824 43.572 36.3504 43.956C36.1264 44.332 35.8304 44.62 35.4624 44.82C35.1024 45.02 34.6664 45.12 34.1544 45.12C33.5144 45.12 32.9824 44.944 32.5584 44.592C32.1424 44.24 31.8304 43.736 31.6224 43.08C31.4224 42.416 31.3224 41.624 31.3224 40.704C31.3224 39.776 31.4144 38.984 31.5984 38.328C31.7904 37.672 32.0944 37.172 32.5104 36.828C32.9264 36.476 33.4744 36.3 34.1544 36.3C34.7944 36.3 35.3264 36.476 35.7504 36.828C36.1744 37.172 36.4904 37.672 36.6984 38.328C36.9064 38.984 37.0104 39.776 37.0104 40.704ZM32.3784 40.704C32.3784 41.488 32.4344 42.14 32.5464 42.66C32.6664 43.18 32.8544 43.572 33.1104 43.836C33.3744 44.092 33.7224 44.22 34.1544 44.22C34.5864 44.22 34.9304 44.092 35.1864 43.836C35.4504 43.58 35.6424 43.192 35.7624 42.672C35.8824 42.144 35.9424 41.488 35.9424 40.704C35.9424 39.92 35.8824 39.272 35.7624 38.76C35.6424 38.24 35.4504 37.852 35.1864 37.596C34.9304 37.332 34.5864 37.2 34.1544 37.2C33.7224 37.2 33.3744 37.332 33.1104 37.596C32.8544 37.852 32.6664 38.24 32.5464 38.76C32.4344 39.272 32.3784 39.92 32.3784 40.704Z" fill="black"/>
<path d="M22.916 69.436C22.916 69.82 22.844 70.152 22.7 70.432C22.556 70.712 22.348 70.94 22.076 71.116C21.812 71.292 21.5 71.416 21.14 71.488V71.536C21.828 71.616 22.34 71.832 22.676 72.184C23.012 72.536 23.18 72.996 23.18 73.564C23.18 74.06 23.064 74.504 22.832 74.896C22.6 75.28 22.24 75.58 21.752 75.796C21.272 76.012 20.652 76.12 19.892 76.12C19.444 76.12 19.028 76.084 18.644 76.012C18.26 75.948 17.892 75.828 17.54 75.652V74.668C17.9 74.844 18.288 74.984 18.704 75.088C19.12 75.184 19.52 75.232 19.904 75.232C20.672 75.232 21.224 75.084 21.56 74.788C21.904 74.484 22.076 74.068 22.076 73.54C22.076 73.18 21.98 72.892 21.788 72.676C21.604 72.452 21.332 72.288 20.972 72.184C20.612 72.08 20.18 72.028 19.676 72.028H18.848V71.128H19.688C20.16 71.128 20.552 71.06 20.864 70.924C21.184 70.788 21.424 70.6 21.584 70.36C21.752 70.112 21.836 69.828 21.836 69.508C21.836 69.092 21.696 68.772 21.416 68.548C21.136 68.316 20.756 68.2 20.276 68.2C19.972 68.2 19.696 68.232 19.448 68.296C19.2 68.352 18.968 68.436 18.752 68.548C18.544 68.652 18.332 68.776 18.116 68.92L17.588 68.2C17.796 68.04 18.032 67.892 18.296 67.756C18.568 67.62 18.868 67.512 19.196 67.432C19.524 67.352 19.88 67.312 20.264 67.312C21.16 67.312 21.824 67.512 22.256 67.912C22.696 68.312 22.916 68.82 22.916 69.436ZM27.1672 70.744C27.7512 70.744 28.2592 70.844 28.6912 71.044C29.1232 71.244 29.4552 71.532 29.6872 71.908C29.9272 72.276 30.0472 72.728 30.0472 73.264C30.0472 73.856 29.9192 74.368 29.6632 74.8C29.4072 75.224 29.0392 75.552 28.5592 75.784C28.0872 76.008 27.5152 76.12 26.8432 76.12C26.4032 76.12 25.9872 76.08 25.5952 76C25.2112 75.92 24.8872 75.804 24.6232 75.652V74.656C24.9112 74.832 25.2592 74.972 25.6672 75.076C26.0832 75.172 26.4792 75.22 26.8552 75.22C27.2792 75.22 27.6472 75.156 27.9592 75.028C28.2792 74.892 28.5272 74.688 28.7032 74.416C28.8792 74.136 28.9672 73.788 28.9672 73.372C28.9672 72.812 28.7952 72.384 28.4512 72.088C28.1072 71.784 27.5632 71.632 26.8192 71.632C26.5952 71.632 26.3392 71.652 26.0512 71.692C25.7632 71.732 25.5312 71.772 25.3552 71.812L24.8272 71.476L25.1512 67.432H29.4472V68.392H26.0512L25.8472 70.876C25.9832 70.852 26.1672 70.824 26.3992 70.792C26.6312 70.76 26.8872 70.744 27.1672 70.744ZM37.0104 71.704C37.0104 72.4 36.9584 73.02 36.8544 73.564C36.7504 74.108 36.5824 74.572 36.3504 74.956C36.1264 75.332 35.8304 75.62 35.4624 75.82C35.1024 76.02 34.6664 76.12 34.1544 76.12C33.5144 76.12 32.9824 75.944 32.5584 75.592C32.1424 75.24 31.8304 74.736 31.6224 74.08C31.4224 73.416 31.3224 72.624 31.3224 71.704C31.3224 70.776 31.4144 69.984 31.5984 69.328C31.7904 68.672 32.0944 68.172 32.5104 67.828C32.9264 67.476 33.4744 67.3 34.1544 67.3C34.7944 67.3 35.3264 67.476 35.7504 67.828C36.1744 68.172 36.4904 68.672 36.6984 69.328C36.9064 69.984 37.0104 70.776 37.0104 71.704ZM32.3784 71.704C32.3784 72.488 32.4344 73.14 32.5464 73.66C32.6664 74.18 32.8544 74.572 33.1104 74.836C33.3744 75.092 33.7224 75.22 34.1544 75.22C34.5864 75.22 34.9304 75.092 35.1864 74.836C35.4504 74.58 35.6424 74.192 35.7624 73.672C35.8824 73.144 35.9424 72.488 35.9424 71.704C35.9424 70.92 35.8824 70.272 35.7624 69.76C35.6424 69.24 35.4504 68.852 35.1864 68.596C34.9304 68.332 34.5864 68.2 34.1544 68.2C33.7224 68.2 33.3744 68.332 33.1104 68.596C32.8544 68.852 32.6664 69.24 32.5464 69.76C32.4344 70.272 32.3784 70.92 32.3784 71.704Z" fill="black"/>
<path d="M22.916 100.436C22.916 100.82 22.844 101.152 22.7 101.432C22.556 101.712 22.348 101.94 22.076 102.116C21.812 102.292 21.5 102.416 21.14 102.488V102.536C21.828 102.616 22.34 102.832 22.676 103.184C23.012 103.536 23.18 103.996 23.18 104.564C23.18 105.06 23.064 105.504 22.832 105.896C22.6 106.28 22.24 106.58 21.752 106.796C21.272 107.012 20.652 107.12 19.892 107.12C19.444 107.12 19.028 107.084 18.644 107.012C18.26 106.948 17.892 106.828 17.54 106.652V105.668C17.9 105.844 18.288 105.984 18.704 106.088C19.12 106.184 19.52 106.232 19.904 106.232C20.672 106.232 21.224 106.084 21.56 105.788C21.904 105.484 22.076 105.068 22.076 104.54C22.076 104.18 21.98 103.892 21.788 103.676C21.604 103.452 21.332 103.288 20.972 103.184C20.612 103.08 20.18 103.028 19.676 103.028H18.848V102.128H19.688C20.16 102.128 20.552 102.06 20.864 101.924C21.184 101.788 21.424 101.6 21.584 101.36C21.752 101.112 21.836 100.828 21.836 100.508C21.836 100.092 21.696 99.772 21.416 99.548C21.136 99.316 20.756 99.2 20.276 99.2C19.972 99.2 19.696 99.232 19.448 99.296C19.2 99.352 18.968 99.436 18.752 99.548C18.544 99.652 18.332 99.776 18.116 99.92L17.588 99.2C17.796 99.04 18.032 98.892 18.296 98.756C18.568 98.62 18.868 98.512 19.196 98.432C19.524 98.352 19.88 98.312 20.264 98.312C21.16 98.312 21.824 98.512 22.256 98.912C22.696 99.312 22.916 99.82 22.916 100.436ZM30.1432 102.704C30.1432 103.4 30.0912 104.02 29.9872 104.564C29.8832 105.108 29.7152 105.572 29.4832 105.956C29.2592 106.332 28.9632 106.62 28.5952 106.82C28.2352 107.02 27.7992 107.12 27.2872 107.12C26.6472 107.12 26.1152 106.944 25.6912 106.592C25.2752 106.24 24.9632 105.736 24.7552 105.08C24.5552 104.416 24.4552 103.624 24.4552 102.704C24.4552 101.776 24.5472 100.984 24.7312 100.328C24.9232 99.672 25.2272 99.172 25.6432 98.828C26.0592 98.476 26.6072 98.3 27.2872 98.3C27.9272 98.3 28.4592 98.476 28.8832 98.828C29.3072 99.172 29.6232 99.672 29.8312 100.328C30.0392 100.984 30.1432 101.776 30.1432 102.704ZM25.5112 102.704C25.5112 103.488 25.5672 104.14 25.6792 104.66C25.7992 105.18 25.9872 105.572 26.2432 105.836C26.5072 106.092 26.8552 106.22 27.2872 106.22C27.7192 106.22 28.0632 106.092 28.3192 105.836C28.5832 105.58 28.7752 105.192 28.8952 104.672C29.0152 104.144 29.0752 103.488 29.0752 102.704C29.0752 101.92 29.0152 101.272 28.8952 100.76C28.7752 100.24 28.5832 99.852 28.3192 99.596C28.0632 99.332 27.7192 99.2 27.2872 99.2C26.8552 99.2 26.5072 99.332 26.2432 99.596C25.9872 99.852 25.7992 100.24 25.6792 100.76C25.5672 101.272 25.5112 101.92 25.5112 102.704ZM37.0104 102.704C37.0104 103.4 36.9584 104.02 36.8544 104.564C36.7504 105.108 36.5824 105.572 36.3504 105.956C36.1264 106.332 35.8304 106.62 35.4624 106.82C35.1024 107.02 34.6664 107.12 34.1544 107.12C33.5144 107.12 32.9824 106.944 32.5584 106.592C32.1424 106.24 31.8304 105.736 31.6224 105.08C31.4224 104.416 31.3224 103.624 31.3224 102.704C31.3224 101.776 31.4144 100.984 31.5984 100.328C31.7904 99.672 32.0944 99.172 32.5104 98.828C32.9264 98.476 33.4744 98.3 34.1544 98.3C34.7944 98.3 35.3264 98.476 35.7504 98.828C36.1744 99.172 36.4904 99.672 36.6984 100.328C36.9064 100.984 37.0104 101.776 37.0104 102.704ZM32.3784 102.704C32.3784 103.488 32.4344 104.14 32.5464 104.66C32.6664 105.18 32.8544 105.572 33.1104 105.836C33.3744 106.092 33.7224 106.22 34.1544 106.22C34.5864 106.22 34.9304 106.092 35.1864 105.836C35.4504 105.58 35.6424 105.192 35.7624 104.672C35.8824 104.144 35.9424 103.488 35.9424 102.704C35.9424 101.92 35.8824 101.272 35.7624 100.76C35.6424 100.24 35.4504 99.852 35.1864 99.596C34.9304 99.332 34.5864 99.2 34.1544 99.2C33.7224 99.2 33.3744 99.332 33.1104 99.596C32.8544 99.852 32.6664 100.24 32.5464 100.76C32.4344 101.272 32.3784 101.92 32.3784 102.704Z" fill="black"/>
<path d="M23.24 138H17.576V137.124L19.82 134.856C20.252 134.424 20.616 134.04 20.912 133.704C21.208 133.368 21.432 133.04 21.584 132.72C21.736 132.392 21.812 132.036 21.812 131.652C21.812 131.18 21.672 130.824 21.392 130.584C21.112 130.336 20.748 130.212 20.3 130.212C19.884 130.212 19.516 130.284 19.196 130.428C18.884 130.572 18.564 130.772 18.236 131.028L17.672 130.32C17.896 130.128 18.14 129.956 18.404 129.804C18.676 129.652 18.968 129.532 19.28 129.444C19.6 129.356 19.94 129.312 20.3 129.312C20.836 129.312 21.296 129.404 21.68 129.588C22.064 129.772 22.36 130.036 22.568 130.38C22.784 130.716 22.892 131.12 22.892 131.592C22.892 131.928 22.84 132.248 22.736 132.552C22.632 132.848 22.484 133.14 22.292 133.428C22.1 133.716 21.868 134.008 21.596 134.304C21.324 134.6 21.024 134.908 20.696 135.228L18.908 136.992V137.04H23.24V138ZM27.1672 132.744C27.7512 132.744 28.2592 132.844 28.6912 133.044C29.1232 133.244 29.4552 133.532 29.6872 133.908C29.9272 134.276 30.0472 134.728 30.0472 135.264C30.0472 135.856 29.9192 136.368 29.6632 136.8C29.4072 137.224 29.0392 137.552 28.5592 137.784C28.0872 138.008 27.5152 138.12 26.8432 138.12C26.4032 138.12 25.9872 138.08 25.5952 138C25.2112 137.92 24.8872 137.804 24.6232 137.652V136.656C24.9112 136.832 25.2592 136.972 25.6672 137.076C26.0832 137.172 26.4792 137.22 26.8552 137.22C27.2792 137.22 27.6472 137.156 27.9592 137.028C28.2792 136.892 28.5272 136.688 28.7032 136.416C28.8792 136.136 28.9672 135.788 28.9672 135.372C28.9672 134.812 28.7952 134.384 28.4512 134.088C28.1072 133.784 27.5632 133.632 26.8192 133.632C26.5952 133.632 26.3392 133.652 26.0512 133.692C25.7632 133.732 25.5312 133.772 25.3552 133.812L24.8272 133.476L25.1512 129.432H29.4472V130.392H26.0512L25.8472 132.876C25.9832 132.852 26.1672 132.824 26.3992 132.792C26.6312 132.76 26.8872 132.744 27.1672 132.744ZM37.0104 133.704C37.0104 134.4 36.9584 135.02 36.8544 135.564C36.7504 136.108 36.5824 136.572 36.3504 136.956C36.1264 137.332 35.8304 137.62 35.4624 137.82C35.1024 138.02 34.6664 138.12 34.1544 138.12C33.5144 138.12 32.9824 137.944 32.5584 137.592C32.1424 137.24 31.8304 136.736 31.6224 136.08C31.4224 135.416 31.3224 134.624 31.3224 133.704C31.3224 132.776 31.4144 131.984 31.5984 131.328C31.7904 130.672 32.0944 130.172 32.5104 129.828C32.9264 129.476 33.4744 129.3 34.1544 129.3C34.7944 129.3 35.3264 129.476 35.7504 129.828C36.1744 130.172 36.4904 130.672 36.6984 131.328C36.9064 131.984 37.0104 132.776 37.0104 133.704ZM32.3784 133.704C32.3784 134.488 32.4344 135.14 32.5464 135.66C32.6664 136.18 32.8544 136.572 33.1104 136.836C33.3744 137.092 33.7224 137.22 34.1544 137.22C34.5864 137.22 34.9304 137.092 35.1864 136.836C35.4504 136.58 35.6424 136.192 35.7624 135.672C35.8824 135.144 35.9424 134.488 35.9424 133.704C35.9424 132.92 35.8824 132.272 35.7624 131.76C35.6424 131.24 35.4504 130.852 35.1864 130.596C34.9304 130.332 34.5864 130.2 34.1544 130.2C33.7224 130.2 33.3744 130.332 33.1104 130.596C32.8544 130.852 32.6664 131.24 32.5464 131.76C32.4344 132.272 32.3784 132.92 32.3784 133.704Z" fill="black"/>
<path d="M23.24 169H17.576V168.124L19.82 165.856C20.252 165.424 20.616 165.04 20.912 164.704C21.208 164.368 21.432 164.04 21.584 163.72C21.736 163.392 21.812 163.036 21.812 162.652C21.812 162.18 21.672 161.824 21.392 161.584C21.112 161.336 20.748 161.212 20.3 161.212C19.884 161.212 19.516 161.284 19.196 161.428C18.884 161.572 18.564 161.772 18.236 162.028L17.672 161.32C17.896 161.128 18.14 160.956 18.404 160.804C18.676 160.652 18.968 160.532 19.28 160.444C19.6 160.356 19.94 160.312 20.3 160.312C20.836 160.312 21.296 160.404 21.68 160.588C22.064 160.772 22.36 161.036 22.568 161.38C22.784 161.716 22.892 162.12 22.892 162.592C22.892 162.928 22.84 163.248 22.736 163.552C22.632 163.848 22.484 164.14 22.292 164.428C22.1 164.716 21.868 165.008 21.596 165.304C21.324 165.6 21.024 165.908 20.696 166.228L18.908 167.992V168.04H23.24V169ZM30.1432 164.704C30.1432 165.4 30.0912 166.02 29.9872 166.564C29.8832 167.108 29.7152 167.572 29.4832 167.956C29.2592 168.332 28.9632 168.62 28.5952 168.82C28.2352 169.02 27.7992 169.12 27.2872 169.12C26.6472 169.12 26.1152 168.944 25.6912 168.592C25.2752 168.24 24.9632 167.736 24.7552 167.08C24.5552 166.416 24.4552 165.624 24.4552 164.704C24.4552 163.776 24.5472 162.984 24.7312 162.328C24.9232 161.672 25.2272 161.172 25.6432 160.828C26.0592 160.476 26.6072 160.3 27.2872 160.3C27.9272 160.3 28.4592 160.476 28.8832 160.828C29.3072 161.172 29.6232 161.672 29.8312 162.328C30.0392 162.984 30.1432 163.776 30.1432 164.704ZM25.5112 164.704C25.5112 165.488 25.5672 166.14 25.6792 166.66C25.7992 167.18 25.9872 167.572 26.2432 167.836C26.5072 168.092 26.8552 168.22 27.2872 168.22C27.7192 168.22 28.0632 168.092 28.3192 167.836C28.5832 167.58 28.7752 167.192 28.8952 166.672C29.0152 166.144 29.0752 165.488 29.0752 164.704C29.0752 163.92 29.0152 163.272 28.8952 162.76C28.7752 162.24 28.5832 161.852 28.3192 161.596C28.0632 161.332 27.7192 161.2 27.2872 161.2C26.8552 161.2 26.5072 161.332 26.2432 161.596C25.9872 161.852 25.7992 162.24 25.6792 162.76C25.5672 163.272 25.5112 163.92 25.5112 164.704ZM37.0104 164.704C37.0104 165.4 36.9584 166.02 36.8544 166.564C36.7504 167.108 36.5824 167.572 36.3504 167.956C36.1264 168.332 35.8304 168.62 35.4624 168.82C35.1024 169.02 34.6664 169.12 34.1544 169.12C33.5144 169.12 32.9824 168.944 32.5584 168.592C32.1424 168.24 31.8304 167.736 31.6224 167.08C31.4224 166.416 31.3224 165.624 31.3224 164.704C31.3224 163.776 31.4144 162.984 31.5984 162.328C31.7904 161.672 32.0944 161.172 32.5104 160.828C32.9264 160.476 33.4744 160.3 34.1544 160.3C34.7944 160.3 35.3264 160.476 35.7504 160.828C36.1744 161.172 36.4904 161.672 36.6984 162.328C36.9064 162.984 37.0104 163.776 37.0104 164.704ZM32.3784 164.704C32.3784 165.488 32.4344 166.14 32.5464 166.66C32.6664 167.18 32.8544 167.572 33.1104 167.836C33.3744 168.092 33.7224 168.22 34.1544 168.22C34.5864 168.22 34.9304 168.092 35.1864 167.836C35.4504 167.58 35.6424 167.192 35.7624 166.672C35.8824 166.144 35.9424 165.488 35.9424 164.704C35.9424 163.92 35.8824 163.272 35.7624 162.76C35.6424 162.24 35.4504 161.852 35.1864 161.596C34.9304 161.332 34.5864 161.2 34.1544 161.2C33.7224 161.2 33.3744 161.332 33.1104 161.596C32.8544 161.852 32.6664 162.24 32.5464 162.76C32.4344 163.272 32.3784 163.92 32.3784 164.704Z" fill="black"/>
<path d="M21.26 200H20.228V194.012C20.228 193.78 20.228 193.584 20.228 193.424C20.236 193.264 20.244 193.116 20.252 192.98C20.26 192.836 20.268 192.688 20.276 192.536C20.148 192.664 20.032 192.772 19.928 192.86C19.824 192.948 19.692 193.06 19.532 193.196L18.62 193.94L18.068 193.232L20.384 191.432H21.26V200ZM27.1672 194.744C27.7512 194.744 28.2592 194.844 28.6912 195.044C29.1232 195.244 29.4552 195.532 29.6872 195.908C29.9272 196.276 30.0472 196.728 30.0472 197.264C30.0472 197.856 29.9192 198.368 29.6632 198.8C29.4072 199.224 29.0392 199.552 28.5592 199.784C28.0872 200.008 27.5152 200.12 26.8432 200.12C26.4032 200.12 25.9872 200.08 25.5952 200C25.2112 199.92 24.8872 199.804 24.6232 199.652V198.656C24.9112 198.832 25.2592 198.972 25.6672 199.076C26.0832 199.172 26.4792 199.22 26.8552 199.22C27.2792 199.22 27.6472 199.156 27.9592 199.028C28.2792 198.892 28.5272 198.688 28.7032 198.416C28.8792 198.136 28.9672 197.788 28.9672 197.372C28.9672 196.812 28.7952 196.384 28.4512 196.088C28.1072 195.784 27.5632 195.632 26.8192 195.632C26.5952 195.632 26.3392 195.652 26.0512 195.692C25.7632 195.732 25.5312 195.772 25.3552 195.812L24.8272 195.476L25.1512 191.432H29.4472V192.392H26.0512L25.8472 194.876C25.9832 194.852 26.1672 194.824 26.3992 194.792C26.6312 194.76 26.8872 194.744 27.1672 194.744ZM37.0104 195.704C37.0104 196.4 36.9584 197.02 36.8544 197.564C36.7504 198.108 36.5824 198.572 36.3504 198.956C36.1264 199.332 35.8304 199.62 35.4624 199.82C35.1024 200.02 34.6664 200.12 34.1544 200.12C33.5144 200.12 32.9824 199.944 32.5584 199.592C32.1424 199.24 31.8304 198.736 31.6224 198.08C31.4224 197.416 31.3224 196.624 31.3224 195.704C31.3224 194.776 31.4144 193.984 31.5984 193.328C31.7904 192.672 32.0944 192.172 32.5104 191.828C32.9264 191.476 33.4744 191.3 34.1544 191.3C34.7944 191.3 35.3264 191.476 35.7504 191.828C36.1744 192.172 36.4904 192.672 36.6984 193.328C36.9064 193.984 37.0104 194.776 37.0104 195.704ZM32.3784 195.704C32.3784 196.488 32.4344 197.14 32.5464 197.66C32.6664 198.18 32.8544 198.572 33.1104 198.836C33.3744 199.092 33.7224 199.22 34.1544 199.22C34.5864 199.22 34.9304 199.092 35.1864 198.836C35.4504 198.58 35.6424 198.192 35.7624 197.672C35.8824 197.144 35.9424 196.488 35.9424 195.704C35.9424 194.92 35.8824 194.272 35.7624 193.76C35.6424 193.24 35.4504 192.852 35.1864 192.596C34.9304 192.332 34.5864 192.2 34.1544 192.2C33.7224 192.2 33.3744 192.332 33.1104 192.596C32.8544 192.852 32.6664 193.24 32.5464 193.76C32.4344 194.272 32.3784 194.92 32.3784 195.704Z" fill="black"/>
<path d="M21.26 231H20.228V225.012C20.228 224.78 20.228 224.584 20.228 224.424C20.236 224.264 20.244 224.116 20.252 223.98C20.26 223.836 20.268 223.688 20.276 223.536C20.148 223.664 20.032 223.772 19.928 223.86C19.824 223.948 19.692 224.06 19.532 224.196L18.62 224.94L18.068 224.232L20.384 222.432H21.26V231ZM30.1432 226.704C30.1432 227.4 30.0912 228.02 29.9872 228.564C29.8832 229.108 29.7152 229.572 29.4832 229.956C29.2592 230.332 28.9632 230.62 28.5952 230.82C28.2352 231.02 27.7992 231.12 27.2872 231.12C26.6472 231.12 26.1152 230.944 25.6912 230.592C25.2752 230.24 24.9632 229.736 24.7552 229.08C24.5552 228.416 24.4552 227.624 24.4552 226.704C24.4552 225.776 24.5472 224.984 24.7312 224.328C24.9232 223.672 25.2272 223.172 25.6432 222.828C26.0592 222.476 26.6072 222.3 27.2872 222.3C27.9272 222.3 28.4592 222.476 28.8832 222.828C29.3072 223.172 29.6232 223.672 29.8312 224.328C30.0392 224.984 30.1432 225.776 30.1432 226.704ZM25.5112 226.704C25.5112 227.488 25.5672 228.14 25.6792 228.66C25.7992 229.18 25.9872 229.572 26.2432 229.836C26.5072 230.092 26.8552 230.22 27.2872 230.22C27.7192 230.22 28.0632 230.092 28.3192 229.836C28.5832 229.58 28.7752 229.192 28.8952 228.672C29.0152 228.144 29.0752 227.488 29.0752 226.704C29.0752 225.92 29.0152 225.272 28.8952 224.76C28.7752 224.24 28.5832 223.852 28.3192 223.596C28.0632 223.332 27.7192 223.2 27.2872 223.2C26.8552 223.2 26.5072 223.332 26.2432 223.596C25.9872 223.852 25.7992 224.24 25.6792 224.76C25.5672 225.272 25.5112 225.92 25.5112 226.704ZM37.0104 226.704C37.0104 227.4 36.9584 228.02 36.8544 228.564C36.7504 229.108 36.5824 229.572 36.3504 229.956C36.1264 230.332 35.8304 230.62 35.4624 230.82C35.1024 231.02 34.6664 231.12 34.1544 231.12C33.5144 231.12 32.9824 230.944 32.5584 230.592C32.1424 230.24 31.8304 229.736 31.6224 229.08C31.4224 228.416 31.3224 227.624 31.3224 226.704C31.3224 225.776 31.4144 224.984 31.5984 224.328C31.7904 223.672 32.0944 223.172 32.5104 222.828C32.9264 222.476 33.4744 222.3 34.1544 222.3C34.7944 222.3 35.3264 222.476 35.7504 222.828C36.1744 223.172 36.4904 223.672 36.6984 224.328C36.9064 224.984 37.0104 225.776 37.0104 226.704ZM32.3784 226.704C32.3784 227.488 32.4344 228.14 32.5464 228.66C32.6664 229.18 32.8544 229.572 33.1104 229.836C33.3744 230.092 33.7224 230.22 34.1544 230.22C34.5864 230.22 34.9304 230.092 35.1864 229.836C35.4504 229.58 35.6424 229.192 35.7624 228.672C35.8824 228.144 35.9424 227.488 35.9424 226.704C35.9424 225.92 35.8824 225.272 35.7624 224.76C35.6424 224.24 35.4504 223.852 35.1864 223.596C34.9304 223.332 34.5864 223.2 34.1544 223.2C33.7224 223.2 33.3744 223.332 33.1104 223.596C32.8544 223.852 32.6664 224.24 32.5464 224.76C32.4344 225.272 32.3784 225.92 32.3784 226.704Z" fill="black"/>
<path d="M27.3 256.744C27.884 256.744 28.392 256.844 28.824 257.044C29.256 257.244 29.588 257.532 29.82 257.908C30.06 258.276 30.18 258.728 30.18 259.264C30.18 259.856 30.052 260.368 29.796 260.8C29.54 261.224 29.172 261.552 28.692 261.784C28.22 262.008 27.648 262.12 26.976 262.12C26.536 262.12 26.12 262.08 25.728 262C25.344 261.92 25.02 261.804 24.756 261.652V260.656C25.044 260.832 25.392 260.972 25.8 261.076C26.216 261.172 26.612 261.22 26.988 261.22C27.412 261.22 27.78 261.156 28.092 261.028C28.412 260.892 28.66 260.688 28.836 260.416C29.012 260.136 29.1 259.788 29.1 259.372C29.1 258.812 28.928 258.384 28.584 258.088C28.24 257.784 27.696 257.632 26.952 257.632C26.728 257.632 26.472 257.652 26.184 257.692C25.896 257.732 25.664 257.772 25.488 257.812L24.96 257.476L25.284 253.432H29.58V254.392H26.184L25.98 256.876C26.116 256.852 26.3 256.824 26.532 256.792C26.764 256.76 27.02 256.744 27.3 256.744ZM37.1432 257.704C37.1432 258.4 37.0912 259.02 36.9872 259.564C36.8832 260.108 36.7152 260.572 36.4832 260.956C36.2592 261.332 35.9632 261.62 35.5952 261.82C35.2352 262.02 34.7992 262.12 34.2872 262.12C33.6472 262.12 33.1152 261.944 32.6912 261.592C32.2752 261.24 31.9632 260.736 31.7552 260.08C31.5552 259.416 31.4552 258.624 31.4552 257.704C31.4552 256.776 31.5472 255.984 31.7312 255.328C31.9232 254.672 32.2272 254.172 32.6432 253.828C33.0592 253.476 33.6072 253.3 34.2872 253.3C34.9272 253.3 35.4592 253.476 35.8832 253.828C36.3072 254.172 36.6232 254.672 36.8312 255.328C37.0392 255.984 37.1432 256.776 37.1432 257.704ZM32.5112 257.704C32.5112 258.488 32.5672 259.14 32.6792 259.66C32.7992 260.18 32.9872 260.572 33.2432 260.836C33.5072 261.092 33.8552 261.22 34.2872 261.22C34.7192 261.22 35.0632 261.092 35.3192 260.836C35.5832 260.58 35.7752 260.192 35.8952 259.672C36.0152 259.144 36.0752 258.488 36.0752 257.704C36.0752 256.92 36.0152 256.272 35.8952 255.76C35.7752 255.24 35.5832 254.852 35.3192 254.596C35.0632 254.332 34.7192 254.2 34.2872 254.2C33.8552 254.2 33.5072 254.332 33.2432 254.596C32.9872 254.852 32.7992 255.24 32.6792 255.76C32.5672 256.272 32.5112 256.92 32.5112 257.704Z" fill="black"/>
<path d="M37.276 288.704C37.276 289.4 37.224 290.02 37.12 290.564C37.016 291.108 36.848 291.572 36.616 291.956C36.392 292.332 36.096 292.62 35.728 292.82C35.368 293.02 34.932 293.12 34.42 293.12C33.78 293.12 33.248 292.944 32.824 292.592C32.408 292.24 32.096 291.736 31.888 291.08C31.688 290.416 31.588 289.624 31.588 288.704C31.588 287.776 31.68 286.984 31.864 286.328C32.056 285.672 32.36 285.172 32.776 284.828C33.192 284.476 33.74 284.3 34.42 284.3C35.06 284.3 35.592 284.476 36.016 284.828C36.44 285.172 36.756 285.672 36.964 286.328C37.172 286.984 37.276 287.776 37.276 288.704ZM32.644 288.704C32.644 289.488 32.7 290.14 32.812 290.66C32.932 291.18 33.12 291.572 33.376 291.836C33.64 292.092 33.988 292.22 34.42 292.22C34.852 292.22 35.196 292.092 35.452 291.836C35.716 291.58 35.908 291.192 36.028 290.672C36.148 290.144 36.208 289.488 36.208 288.704C36.208 287.92 36.148 287.272 36.028 286.76C35.908 286.24 35.716 285.852 35.452 285.596C35.196 285.332 34.852 285.2 34.42 285.2C33.988 285.2 33.64 285.332 33.376 285.596C33.12 285.852 32.932 286.24 32.812 286.76C32.7 287.272 32.644 287.92 32.644 288.704Z" fill="black"/>
<path d="M84.26 318.25H83.228V312.262C83.228 312.03 83.228 311.834 83.228 311.674C83.236 311.514 83.244 311.366 83.252 311.23C83.26 311.086 83.268 310.938 83.276 310.786C83.148 310.914 83.032 311.022 82.928 311.11C82.824 311.198 82.692 311.31 82.532 311.446L81.62 312.19L81.068 311.482L83.384 309.682H84.26V318.25ZM93.1432 313.954C93.1432 314.65 93.0912 315.27 92.9872 315.814C92.8832 316.358 92.7152 316.822 92.4832 317.206C92.2592 317.582 91.9632 317.87 91.5952 318.07C91.2352 318.27 90.7992 318.37 90.2872 318.37C89.6472 318.37 89.1152 318.194 88.6912 317.842C88.2752 317.49 87.9632 316.986 87.7552 316.33C87.5552 315.666 87.4552 314.874 87.4552 313.954C87.4552 313.026 87.5472 312.234 87.7312 311.578C87.9232 310.922 88.2272 310.422 88.6432 310.078C89.0592 309.726 89.6072 309.55 90.2872 309.55C90.9272 309.55 91.4592 309.726 91.8832 310.078C92.3072 310.422 92.6232 310.922 92.8312 311.578C93.0392 312.234 93.1432 313.026 93.1432 313.954ZM88.5112 313.954C88.5112 314.738 88.5672 315.39 88.6792 315.91C88.7992 316.43 88.9872 316.822 89.2432 317.086C89.5072 317.342 89.8552 317.47 90.2872 317.47C90.7192 317.47 91.0632 317.342 91.3192 317.086C91.5832 316.83 91.7752 316.442 91.8952 315.922C92.0152 315.394 92.0752 314.738 92.0752 313.954C92.0752 313.17 92.0152 312.522 91.8952 312.01C91.7752 311.49 91.5832 311.102 91.3192 310.846C91.0632 310.582 90.7192 310.45 90.2872 310.45C89.8552 310.45 89.5072 310.582 89.2432 310.846C88.9872 311.102 88.7992 311.49 88.6792 312.01C88.5672 312.522 88.5112 313.17 88.5112 313.954Z" fill="black"/>
<path d="M120.24 318.25H114.576V317.374L116.82 315.106C117.252 314.674 117.616 314.29 117.912 313.954C118.208 313.618 118.432 313.29 118.584 312.97C118.736 312.642 118.812 312.286 118.812 311.902C118.812 311.43 118.672 311.074 118.392 310.834C118.112 310.586 117.748 310.462 117.3 310.462C116.884 310.462 116.516 310.534 116.196 310.678C115.884 310.822 115.564 311.022 115.236 311.278L114.672 310.57C114.896 310.378 115.14 310.206 115.404 310.054C115.676 309.902 115.968 309.782 116.28 309.694C116.6 309.606 116.94 309.562 117.3 309.562C117.836 309.562 118.296 309.654 118.68 309.838C119.064 310.022 119.36 310.286 119.568 310.63C119.784 310.966 119.892 311.37 119.892 311.842C119.892 312.178 119.84 312.498 119.736 312.802C119.632 313.098 119.484 313.39 119.292 313.678C119.1 313.966 118.868 314.258 118.596 314.554C118.324 314.85 118.024 315.158 117.696 315.478L115.908 317.242V317.29H120.24V318.25ZM127.143 313.954C127.143 314.65 127.091 315.27 126.987 315.814C126.883 316.358 126.715 316.822 126.483 317.206C126.259 317.582 125.963 317.87 125.595 318.07C125.235 318.27 124.799 318.37 124.287 318.37C123.647 318.37 123.115 318.194 122.691 317.842C122.275 317.49 121.963 316.986 121.755 316.33C121.555 315.666 121.455 314.874 121.455 313.954C121.455 313.026 121.547 312.234 121.731 311.578C121.923 310.922 122.227 310.422 122.643 310.078C123.059 309.726 123.607 309.55 124.287 309.55C124.927 309.55 125.459 309.726 125.883 310.078C126.307 310.422 126.623 310.922 126.831 311.578C127.039 312.234 127.143 313.026 127.143 313.954ZM122.511 313.954C122.511 314.738 122.567 315.39 122.679 315.91C122.799 316.43 122.987 316.822 123.243 317.086C123.507 317.342 123.855 317.47 124.287 317.47C124.719 317.47 125.063 317.342 125.319 317.086C125.583 316.83 125.775 316.442 125.895 315.922C126.015 315.394 126.075 314.738 126.075 313.954C126.075 313.17 126.015 312.522 125.895 312.01C125.775 311.49 125.583 311.102 125.319 310.846C125.063 310.582 124.719 310.45 124.287 310.45C123.855 310.45 123.507 310.582 123.243 310.846C122.987 311.102 122.799 311.49 122.679 312.01C122.567 312.522 122.511 313.17 122.511 313.954Z" fill="black"/>
<path d="M153.916 311.686C153.916 312.07 153.844 312.402 153.7 312.682C153.556 312.962 153.348 313.19 153.076 313.366C152.812 313.542 152.5 313.666 152.14 313.738V313.786C152.828 313.866 153.34 314.082 153.676 314.434C154.012 314.786 154.18 315.246 154.18 315.814C154.18 316.31 154.064 316.754 153.832 317.146C153.6 317.53 153.24 317.83 152.752 318.046C152.272 318.262 151.652 318.37 150.892 318.37C150.444 318.37 150.028 318.334 149.644 318.262C149.26 318.198 148.892 318.078 148.54 317.902V316.918C148.9 317.094 149.288 317.234 149.704 317.338C150.12 317.434 150.52 317.482 150.904 317.482C151.672 317.482 152.224 317.334 152.56 317.038C152.904 316.734 153.076 316.318 153.076 315.79C153.076 315.43 152.98 315.142 152.788 314.926C152.604 314.702 152.332 314.538 151.972 314.434C151.612 314.33 151.18 314.278 150.676 314.278H149.848V313.378H150.688C151.16 313.378 151.552 313.31 151.864 313.174C152.184 313.038 152.424 312.85 152.584 312.61C152.752 312.362 152.836 312.078 152.836 311.758C152.836 311.342 152.696 311.022 152.416 310.798C152.136 310.566 151.756 310.45 151.276 310.45C150.972 310.45 150.696 310.482 150.448 310.546C150.2 310.602 149.968 310.686 149.752 310.798C149.544 310.902 149.332 311.026 149.116 311.17L148.588 310.45C148.796 310.29 149.032 310.142 149.296 310.006C149.568 309.87 149.868 309.762 150.196 309.682C150.524 309.602 150.88 309.562 151.264 309.562C152.16 309.562 152.824 309.762 153.256 310.162C153.696 310.562 153.916 311.07 153.916 311.686ZM161.143 313.954C161.143 314.65 161.091 315.27 160.987 315.814C160.883 316.358 160.715 316.822 160.483 317.206C160.259 317.582 159.963 317.87 159.595 318.07C159.235 318.27 158.799 318.37 158.287 318.37C157.647 318.37 157.115 318.194 156.691 317.842C156.275 317.49 155.963 316.986 155.755 316.33C155.555 315.666 155.455 314.874 155.455 313.954C155.455 313.026 155.547 312.234 155.731 311.578C155.923 310.922 156.227 310.422 156.643 310.078C157.059 309.726 157.607 309.55 158.287 309.55C158.927 309.55 159.459 309.726 159.883 310.078C160.307 310.422 160.623 310.922 160.831 311.578C161.039 312.234 161.143 313.026 161.143 313.954ZM156.511 313.954C156.511 314.738 156.567 315.39 156.679 315.91C156.799 316.43 156.987 316.822 157.243 317.086C157.507 317.342 157.855 317.47 158.287 317.47C158.719 317.47 159.063 317.342 159.319 317.086C159.583 316.83 159.775 316.442 159.895 315.922C160.015 315.394 160.075 314.738 160.075 313.954C160.075 313.17 160.015 312.522 159.895 312.01C159.775 311.49 159.583 311.102 159.319 310.846C159.063 310.582 158.719 310.45 158.287 310.45C157.855 310.45 157.507 310.582 157.243 310.846C156.987 311.102 156.799 311.49 156.679 312.01C156.567 312.522 156.511 313.17 156.511 313.954Z" fill="black"/>
<path d="M184.624 316.306H183.376V318.25H182.356V316.306H178.252V315.406L182.284 309.634H183.376V315.358H184.624V316.306ZM182.356 312.658C182.356 312.45 182.356 312.262 182.356 312.094C182.364 311.918 182.372 311.754 182.38 311.602C182.388 311.45 182.392 311.306 182.392 311.17C182.4 311.026 182.408 310.89 182.416 310.762H182.368C182.304 310.914 182.224 311.078 182.128 311.254C182.032 311.43 181.94 311.578 181.852 311.698L179.284 315.358H182.356V312.658ZM191.143 313.954C191.143 314.65 191.091 315.27 190.987 315.814C190.883 316.358 190.715 316.822 190.483 317.206C190.259 317.582 189.963 317.87 189.595 318.07C189.235 318.27 188.799 318.37 188.287 318.37C187.647 318.37 187.115 318.194 186.691 317.842C186.275 317.49 185.963 316.986 185.755 316.33C185.555 315.666 185.455 314.874 185.455 313.954C185.455 313.026 185.547 312.234 185.731 311.578C185.923 310.922 186.227 310.422 186.643 310.078C187.059 309.726 187.607 309.55 188.287 309.55C188.927 309.55 189.459 309.726 189.883 310.078C190.307 310.422 190.623 310.922 190.831 311.578C191.039 312.234 191.143 313.026 191.143 313.954ZM186.511 313.954C186.511 314.738 186.567 315.39 186.679 315.91C186.799 316.43 186.987 316.822 187.243 317.086C187.507 317.342 187.855 317.47 188.287 317.47C188.719 317.47 189.063 317.342 189.319 317.086C189.583 316.83 189.775 316.442 189.895 315.922C190.015 315.394 190.075 314.738 190.075 313.954C190.075 313.17 190.015 312.522 189.895 312.01C189.775 311.49 189.583 311.102 189.319 310.846C189.063 310.582 188.719 310.45 188.287 310.45C187.855 310.45 187.507 310.582 187.243 310.846C186.987 311.102 186.799 311.49 186.679 312.01C186.567 312.522 186.511 313.17 186.511 313.954Z" fill="black"/>
<path d="M213.3 312.994C213.884 312.994 214.392 313.094 214.824 313.294C215.256 313.494 215.588 313.782 215.82 314.158C216.06 314.526 216.18 314.978 216.18 315.514C216.18 316.106 216.052 316.618 215.796 317.05C215.54 317.474 215.172 317.802 214.692 318.034C214.22 318.258 213.648 318.37 212.976 318.37C212.536 318.37 212.12 318.33 211.728 318.25C211.344 318.17 211.02 318.054 210.756 317.902V316.906C211.044 317.082 211.392 317.222 211.8 317.326C212.216 317.422 212.612 317.47 212.988 317.47C213.412 317.47 213.78 317.406 214.092 317.278C214.412 317.142 214.66 316.938 214.836 316.666C215.012 316.386 215.1 316.038 215.1 315.622C215.1 315.062 214.928 314.634 214.584 314.338C214.24 314.034 213.696 313.882 212.952 313.882C212.728 313.882 212.472 313.902 212.184 313.942C211.896 313.982 211.664 314.022 211.488 314.062L210.96 313.726L211.284 309.682H215.58V310.642H212.184L211.98 313.126C212.116 313.102 212.3 313.074 212.532 313.042C212.764 313.01 213.02 312.994 213.3 312.994ZM223.143 313.954C223.143 314.65 223.091 315.27 222.987 315.814C222.883 316.358 222.715 316.822 222.483 317.206C222.259 317.582 221.963 317.87 221.595 318.07C221.235 318.27 220.799 318.37 220.287 318.37C219.647 318.37 219.115 318.194 218.691 317.842C218.275 317.49 217.963 316.986 217.755 316.33C217.555 315.666 217.455 314.874 217.455 313.954C217.455 313.026 217.547 312.234 217.731 311.578C217.923 310.922 218.227 310.422 218.643 310.078C219.059 309.726 219.607 309.55 220.287 309.55C220.927 309.55 221.459 309.726 221.883 310.078C222.307 310.422 222.623 310.922 222.831 311.578C223.039 312.234 223.143 313.026 223.143 313.954ZM218.511 313.954C218.511 314.738 218.567 315.39 218.679 315.91C218.799 316.43 218.987 316.822 219.243 317.086C219.507 317.342 219.855 317.47 220.287 317.47C220.719 317.47 221.063 317.342 221.319 317.086C221.583 316.83 221.775 316.442 221.895 315.922C222.015 315.394 222.075 314.738 222.075 313.954C222.075 313.17 222.015 312.522 221.895 312.01C221.775 311.49 221.583 311.102 221.319 310.846C221.063 310.582 220.719 310.45 220.287 310.45C219.855 310.45 219.507 310.582 219.243 310.846C218.987 311.102 218.799 311.49 218.679 312.01C218.567 312.522 218.511 313.17 218.511 313.954Z" fill="black"/>
<path d="M244.66 314.59C244.66 314.094 244.692 313.606 244.756 313.126C244.828 312.646 244.948 312.194 245.116 311.77C245.284 311.338 245.516 310.958 245.812 310.63C246.108 310.294 246.48 310.034 246.928 309.85C247.384 309.658 247.936 309.562 248.584 309.562C248.752 309.562 248.936 309.57 249.136 309.586C249.344 309.602 249.512 309.63 249.64 309.67V310.57C249.496 310.522 249.332 310.486 249.148 310.462C248.972 310.438 248.792 310.426 248.608 310.426C248.056 310.426 247.596 310.518 247.228 310.702C246.86 310.886 246.568 311.138 246.352 311.458C246.144 311.778 245.992 312.146 245.896 312.562C245.8 312.978 245.74 313.422 245.716 313.894H245.788C245.908 313.702 246.06 313.53 246.244 313.378C246.428 313.226 246.648 313.106 246.904 313.018C247.168 312.93 247.472 312.886 247.816 312.886C248.312 312.886 248.744 312.99 249.112 313.198C249.488 313.398 249.78 313.694 249.988 314.086C250.196 314.47 250.3 314.938 250.3 315.49C250.3 316.082 250.188 316.594 249.964 317.026C249.74 317.458 249.424 317.79 249.016 318.022C248.616 318.254 248.136 318.37 247.576 318.37C247.168 318.37 246.788 318.294 246.436 318.142C246.084 317.99 245.772 317.758 245.5 317.446C245.236 317.134 245.028 316.742 244.876 316.27C244.732 315.79 244.66 315.23 244.66 314.59ZM247.564 317.482C248.068 317.482 248.476 317.322 248.788 317.002C249.1 316.674 249.256 316.17 249.256 315.49C249.256 314.946 249.116 314.514 248.836 314.194C248.564 313.874 248.152 313.714 247.6 313.714C247.224 313.714 246.896 313.794 246.616 313.954C246.336 314.106 246.116 314.302 245.956 314.542C245.804 314.782 245.728 315.03 245.728 315.286C245.728 315.55 245.764 315.81 245.836 316.066C245.916 316.322 246.032 316.558 246.184 316.774C246.344 316.99 246.536 317.162 246.76 317.29C246.992 317.418 247.26 317.482 247.564 317.482ZM257.143 313.954C257.143 314.65 257.091 315.27 256.987 315.814C256.883 316.358 256.715 316.822 256.483 317.206C256.259 317.582 255.963 317.87 255.595 318.07C255.235 318.27 254.799 318.37 254.287 318.37C253.647 318.37 253.115 318.194 252.691 317.842C252.275 317.49 251.963 316.986 251.755 316.33C251.555 315.666 251.455 314.874 251.455 313.954C251.455 313.026 251.547 312.234 251.731 311.578C251.923 310.922 252.227 310.422 252.643 310.078C253.059 309.726 253.607 309.55 254.287 309.55C254.927 309.55 255.459 309.726 255.883 310.078C256.307 310.422 256.623 310.922 256.831 311.578C257.039 312.234 257.143 313.026 257.143 313.954ZM252.511 313.954C252.511 314.738 252.567 315.39 252.679 315.91C252.799 316.43 252.987 316.822 253.243 317.086C253.507 317.342 253.855 317.47 254.287 317.47C254.719 317.47 255.063 317.342 255.319 317.086C255.583 316.83 255.775 316.442 255.895 315.922C256.015 315.394 256.075 314.738 256.075 313.954C256.075 313.17 256.015 312.522 255.895 312.01C255.775 311.49 255.583 311.102 255.319 310.846C255.063 310.582 254.719 310.45 254.287 310.45C253.855 310.45 253.507 310.582 253.243 310.846C252.987 311.102 252.799 311.49 252.679 312.01C252.567 312.522 252.511 313.17 252.511 313.954Z" fill="black"/>
<path d="M277.632 318.25L281.148 310.642H276.528V309.682H282.276V310.498L278.796 318.25H277.632ZM289.143 313.954C289.143 314.65 289.091 315.27 288.987 315.814C288.883 316.358 288.715 316.822 288.483 317.206C288.259 317.582 287.963 317.87 287.595 318.07C287.235 318.27 286.799 318.37 286.287 318.37C285.647 318.37 285.115 318.194 284.691 317.842C284.275 317.49 283.963 316.986 283.755 316.33C283.555 315.666 283.455 314.874 283.455 313.954C283.455 313.026 283.547 312.234 283.731 311.578C283.923 310.922 284.227 310.422 284.643 310.078C285.059 309.726 285.607 309.55 286.287 309.55C286.927 309.55 287.459 309.726 287.883 310.078C288.307 310.422 288.623 310.922 288.831 311.578C289.039 312.234 289.143 313.026 289.143 313.954ZM284.511 313.954C284.511 314.738 284.567 315.39 284.679 315.91C284.799 316.43 284.987 316.822 285.243 317.086C285.507 317.342 285.855 317.47 286.287 317.47C286.719 317.47 287.063 317.342 287.319 317.086C287.583 316.83 287.775 316.442 287.895 315.922C288.015 315.394 288.075 314.738 288.075 313.954C288.075 313.17 288.015 312.522 287.895 312.01C287.775 311.49 287.583 311.102 287.319 310.846C287.063 310.582 286.719 310.45 286.287 310.45C285.855 310.45 285.507 310.582 285.243 310.846C284.987 311.102 284.799 311.49 284.679 312.01C284.567 312.522 284.511 313.17 284.511 313.954Z" fill="black"/>
<path d="M312.42 309.562C312.924 309.562 313.368 309.642 313.752 309.802C314.136 309.954 314.436 310.182 314.652 310.486C314.876 310.79 314.988 311.166 314.988 311.614C314.988 311.958 314.912 312.258 314.76 312.514C314.616 312.77 314.42 312.998 314.172 313.198C313.924 313.39 313.652 313.562 313.356 313.714C313.708 313.882 314.028 314.074 314.316 314.29C314.604 314.498 314.832 314.742 315 315.022C315.176 315.302 315.264 315.638 315.264 316.03C315.264 316.51 315.148 316.926 314.916 317.278C314.684 317.622 314.356 317.89 313.932 318.082C313.516 318.274 313.024 318.37 312.456 318.37C311.84 318.37 311.316 318.278 310.884 318.094C310.46 317.91 310.136 317.65 309.912 317.314C309.696 316.97 309.588 316.554 309.588 316.066C309.588 315.674 309.668 315.334 309.828 315.046C309.996 314.758 310.216 314.51 310.488 314.302C310.76 314.094 311.052 313.918 311.364 313.774C311.084 313.614 310.828 313.434 310.596 313.234C310.372 313.026 310.192 312.79 310.056 312.526C309.928 312.262 309.864 311.954 309.864 311.602C309.864 311.162 309.976 310.794 310.2 310.498C310.424 310.194 310.728 309.962 311.112 309.802C311.496 309.642 311.932 309.562 312.42 309.562ZM310.62 316.078C310.62 316.494 310.768 316.842 311.064 317.122C311.36 317.394 311.816 317.53 312.432 317.53C312.824 317.53 313.152 317.466 313.416 317.338C313.68 317.21 313.88 317.034 314.016 316.81C314.16 316.586 314.232 316.33 314.232 316.042C314.232 315.762 314.156 315.518 314.004 315.31C313.86 315.094 313.652 314.902 313.38 314.734C313.116 314.566 312.8 314.414 312.432 314.278L312.24 314.206C311.888 314.358 311.592 314.522 311.352 314.698C311.112 314.874 310.928 315.074 310.8 315.298C310.68 315.522 310.62 315.782 310.62 316.078ZM312.408 310.414C311.968 310.414 311.604 310.522 311.316 310.738C311.036 310.946 310.896 311.25 310.896 311.65C310.896 311.946 310.964 312.194 311.1 312.394C311.244 312.594 311.436 312.766 311.676 312.91C311.916 313.046 312.18 313.178 312.468 313.306C312.748 313.186 312.996 313.054 313.212 312.91C313.436 312.766 313.612 312.594 313.74 312.394C313.876 312.186 313.944 311.938 313.944 311.65C313.944 311.25 313.804 310.946 313.524 310.738C313.244 310.522 312.872 310.414 312.408 310.414ZM322.143 313.954C322.143 314.65 322.091 315.27 321.987 315.814C321.883 316.358 321.715 316.822 321.483 317.206C321.259 317.582 320.963 317.87 320.595 318.07C320.235 318.27 319.799 318.37 319.287 318.37C318.647 318.37 318.115 318.194 317.691 317.842C317.275 317.49 316.963 316.986 316.755 316.33C316.555 315.666 316.455 314.874 316.455 313.954C316.455 313.026 316.547 312.234 316.731 311.578C316.923 310.922 317.227 310.422 317.643 310.078C318.059 309.726 318.607 309.55 319.287 309.55C319.927 309.55 320.459 309.726 320.883 310.078C321.307 310.422 321.623 310.922 321.831 311.578C322.039 312.234 322.143 313.026 322.143 313.954ZM317.511 313.954C317.511 314.738 317.567 315.39 317.679 315.91C317.799 316.43 317.987 316.822 318.243 317.086C318.507 317.342 318.855 317.47 319.287 317.47C319.719 317.47 320.063 317.342 320.319 317.086C320.583 316.83 320.775 316.442 320.895 315.922C321.015 315.394 321.075 314.738 321.075 313.954C321.075 313.17 321.015 312.522 320.895 312.01C320.775 311.49 320.583 311.102 320.319 310.846C320.063 310.582 319.719 310.45 319.287 310.45C318.855 310.45 318.507 310.582 318.243 310.846C317.987 311.102 317.799 311.49 317.679 312.01C317.567 312.522 317.511 313.17 317.511 313.954Z" fill="black"/>
<path d="M344.24 313.342C344.24 313.83 344.204 314.318 344.132 314.806C344.068 315.286 343.952 315.742 343.784 316.174C343.616 316.598 343.384 316.978 343.088 317.314C342.792 317.642 342.416 317.902 341.96 318.094C341.504 318.278 340.952 318.37 340.304 318.37C340.144 318.37 339.956 318.358 339.74 318.334C339.532 318.318 339.36 318.29 339.224 318.25V317.35C339.368 317.398 339.536 317.438 339.728 317.47C339.92 317.494 340.104 317.506 340.28 317.506C340.84 317.506 341.3 317.414 341.66 317.23C342.028 317.046 342.32 316.798 342.536 316.486C342.752 316.166 342.908 315.798 343.004 315.382C343.1 314.958 343.156 314.514 343.172 314.05H343.1C342.98 314.234 342.828 314.402 342.644 314.554C342.46 314.706 342.236 314.826 341.972 314.914C341.716 315.002 341.412 315.046 341.06 315.046C340.572 315.046 340.14 314.946 339.764 314.746C339.396 314.538 339.108 314.242 338.9 313.858C338.7 313.474 338.6 313.006 338.6 312.454C338.6 311.854 338.712 311.338 338.936 310.906C339.168 310.474 339.488 310.142 339.896 309.91C340.304 309.678 340.784 309.562 341.336 309.562C341.744 309.562 342.124 309.642 342.476 309.802C342.828 309.954 343.136 310.186 343.4 310.498C343.664 310.81 343.868 311.202 344.012 311.674C344.164 312.146 344.24 312.702 344.24 313.342ZM341.336 310.45C340.84 310.45 340.432 310.614 340.112 310.942C339.8 311.27 339.644 311.77 339.644 312.442C339.644 312.994 339.776 313.43 340.04 313.75C340.312 314.062 340.728 314.218 341.288 314.218C341.672 314.218 342.004 314.142 342.284 313.99C342.564 313.83 342.78 313.63 342.932 313.39C343.092 313.15 343.172 312.902 343.172 312.646C343.172 312.39 343.132 312.134 343.052 311.878C342.98 311.614 342.868 311.374 342.716 311.158C342.564 310.942 342.372 310.77 342.14 310.642C341.908 310.514 341.64 310.45 341.336 310.45ZM351.143 313.954C351.143 314.65 351.091 315.27 350.987 315.814C350.883 316.358 350.715 316.822 350.483 317.206C350.259 317.582 349.963 317.87 349.595 318.07C349.235 318.27 348.799 318.37 348.287 318.37C347.647 318.37 347.115 318.194 346.691 317.842C346.275 317.49 345.963 316.986 345.755 316.33C345.555 315.666 345.455 314.874 345.455 313.954C345.455 313.026 345.547 312.234 345.731 311.578C345.923 310.922 346.227 310.422 346.643 310.078C347.059 309.726 347.607 309.55 348.287 309.55C348.927 309.55 349.459 309.726 349.883 310.078C350.307 310.422 350.623 310.922 350.831 311.578C351.039 312.234 351.143 313.026 351.143 313.954ZM346.511 313.954C346.511 314.738 346.567 315.39 346.679 315.91C346.799 316.43 346.987 316.822 347.243 317.086C347.507 317.342 347.855 317.47 348.287 317.47C348.719 317.47 349.063 317.342 349.319 317.086C349.583 316.83 349.775 316.442 349.895 315.922C350.015 315.394 350.075 314.738 350.075 313.954C350.075 313.17 350.015 312.522 349.895 312.01C349.775 311.49 349.583 311.102 349.319 310.846C349.063 310.582 348.719 310.45 348.287 310.45C347.855 310.45 347.507 310.582 347.243 310.846C346.987 311.102 346.799 311.49 346.679 312.01C346.567 312.522 346.511 313.17 346.511 313.954Z" fill="black"/>
<path d="M145.834 331.004L142.376 341H140.458L137 331.004H138.834L140.85 337.122C140.915 337.29 140.981 337.509 141.046 337.78C141.121 338.041 141.191 338.312 141.256 338.592C141.331 338.863 141.387 339.105 141.424 339.32C141.452 339.105 141.499 338.863 141.564 338.592C141.639 338.312 141.713 338.041 141.788 337.78C141.863 337.509 141.928 337.29 141.984 337.122L144 331.004H145.834ZM149.717 333.272C150.697 333.272 151.439 333.487 151.943 333.916C152.456 334.336 152.713 334.999 152.713 335.904V341H151.467L151.117 339.95H151.061C150.846 340.221 150.622 340.449 150.389 340.636C150.165 340.813 149.903 340.939 149.605 341.014C149.315 341.098 148.961 341.14 148.541 341.14C148.093 341.14 147.687 341.056 147.323 340.888C146.968 340.72 146.688 340.463 146.483 340.118C146.277 339.763 146.175 339.32 146.175 338.788C146.175 338.004 146.459 337.416 147.029 337.024C147.607 336.623 148.48 336.403 149.647 336.366L150.963 336.324V335.946C150.963 335.461 150.846 335.115 150.613 334.91C150.379 334.705 150.053 334.602 149.633 334.602C149.25 334.602 148.881 334.658 148.527 334.77C148.172 334.882 147.827 335.013 147.491 335.162L146.931 333.93C147.304 333.734 147.729 333.575 148.205 333.454C148.69 333.333 149.194 333.272 149.717 333.272ZM150.039 337.444C149.264 337.472 148.727 337.607 148.429 337.85C148.13 338.083 147.981 338.401 147.981 338.802C147.981 339.157 148.088 339.413 148.303 339.572C148.517 339.731 148.793 339.81 149.129 339.81C149.642 339.81 150.076 339.665 150.431 339.376C150.785 339.077 150.963 338.639 150.963 338.06V337.416L150.039 337.444ZM156.687 341H154.923V330.36H156.687V341ZM160.693 341L157.809 333.412H159.671L161.183 337.794C161.248 337.971 161.309 338.167 161.365 338.382C161.421 338.587 161.467 338.793 161.505 338.998C161.551 339.194 161.579 339.367 161.589 339.516H161.645C161.663 339.357 161.696 339.18 161.743 338.984C161.789 338.779 161.841 338.573 161.897 338.368C161.962 338.163 162.023 337.971 162.079 337.794L163.591 333.412H165.453L162.569 341H160.693ZM169.637 333.272C170.319 333.272 170.902 333.412 171.387 333.692C171.882 333.963 172.265 334.355 172.535 334.868C172.806 335.372 172.941 335.988 172.941 336.716V337.612H167.929C167.948 338.303 168.139 338.839 168.503 339.222C168.867 339.595 169.371 339.782 170.015 339.782C170.51 339.782 170.949 339.735 171.331 339.642C171.723 339.539 172.125 339.395 172.535 339.208V340.622C172.162 340.799 171.775 340.93 171.373 341.014C170.972 341.098 170.491 341.14 169.931 341.14C169.194 341.14 168.536 341 167.957 340.72C167.388 340.431 166.94 339.997 166.613 339.418C166.296 338.839 166.137 338.121 166.137 337.262C166.137 336.394 166.282 335.666 166.571 335.078C166.87 334.481 167.281 334.033 167.803 333.734C168.326 333.426 168.937 333.272 169.637 333.272ZM169.637 334.574C169.171 334.574 168.788 334.728 168.489 335.036C168.2 335.335 168.027 335.783 167.971 336.38H171.233C171.233 336.025 171.173 335.713 171.051 335.442C170.939 335.171 170.767 334.961 170.533 334.812C170.3 334.653 170.001 334.574 169.637 334.574ZM187.457 335.988C187.457 336.763 187.359 337.467 187.163 338.102C186.976 338.727 186.687 339.269 186.295 339.726C185.912 340.183 185.422 340.533 184.825 340.776C184.237 341.019 183.546 341.14 182.753 341.14C181.95 341.14 181.25 341.019 180.653 340.776C180.065 340.524 179.579 340.174 179.197 339.726C178.814 339.269 178.525 338.723 178.329 338.088C178.142 337.453 178.049 336.749 178.049 335.974C178.049 334.938 178.217 334.037 178.553 333.272C178.898 332.507 179.416 331.914 180.107 331.494C180.807 331.065 181.693 330.85 182.767 330.85C183.821 330.85 184.694 331.065 185.385 331.494C186.075 331.914 186.593 332.511 186.939 333.286C187.284 334.051 187.457 334.952 187.457 335.988ZM179.939 335.988C179.939 336.744 180.037 337.393 180.233 337.934C180.438 338.475 180.746 338.891 181.157 339.18C181.577 339.469 182.109 339.614 182.753 339.614C183.415 339.614 183.952 339.469 184.363 339.18C184.773 338.891 185.077 338.475 185.273 337.934C185.469 337.393 185.567 336.744 185.567 335.988C185.567 334.859 185.347 333.972 184.909 333.328C184.47 332.684 183.756 332.362 182.767 332.362C182.113 332.362 181.577 332.507 181.157 332.796C180.746 333.085 180.438 333.501 180.233 334.042C180.037 334.583 179.939 335.232 179.939 335.988ZM193.407 333.272C194.294 333.272 195.008 333.603 195.549 334.266C196.091 334.919 196.361 335.895 196.361 337.192C196.361 338.051 196.235 338.774 195.983 339.362C195.731 339.95 195.381 340.393 194.933 340.692C194.485 340.991 193.963 341.14 193.365 341.14C193.001 341.14 192.679 341.093 192.399 341C192.119 340.897 191.881 340.771 191.685 340.622C191.489 340.463 191.321 340.295 191.181 340.118H191.069C191.107 340.286 191.135 340.477 191.153 340.692C191.172 340.897 191.181 341.093 191.181 341.28V344.36H189.417V333.412H190.845L191.097 334.42H191.181C191.321 334.205 191.489 334.014 191.685 333.846C191.891 333.669 192.133 333.529 192.413 333.426C192.703 333.323 193.034 333.272 193.407 333.272ZM192.903 334.7C192.493 334.7 192.161 334.784 191.909 334.952C191.657 335.111 191.475 335.358 191.363 335.694C191.251 336.03 191.191 336.45 191.181 336.954V337.178C191.181 337.719 191.233 338.177 191.335 338.55C191.447 338.923 191.629 339.208 191.881 339.404C192.143 339.6 192.493 339.698 192.931 339.698C193.305 339.698 193.608 339.595 193.841 339.39C194.084 339.185 194.261 338.895 194.373 338.522C194.495 338.139 194.555 337.687 194.555 337.164C194.555 336.38 194.42 335.773 194.149 335.344C193.888 334.915 193.473 334.7 192.903 334.7ZM201.233 333.272C201.914 333.272 202.498 333.412 202.983 333.692C203.478 333.963 203.86 334.355 204.131 334.868C204.402 335.372 204.537 335.988 204.537 336.716V337.612H199.525C199.544 338.303 199.735 338.839 200.099 339.222C200.463 339.595 200.967 339.782 201.611 339.782C202.106 339.782 202.544 339.735 202.927 339.642C203.319 339.539 203.72 339.395 204.131 339.208V340.622C203.758 340.799 203.37 340.93 202.969 341.014C202.568 341.098 202.087 341.14 201.527 341.14C200.79 341.14 200.132 341 199.553 340.72C198.984 340.431 198.536 339.997 198.209 339.418C197.892 338.839 197.733 338.121 197.733 337.262C197.733 336.394 197.878 335.666 198.167 335.078C198.466 334.481 198.876 334.033 199.399 333.734C199.922 333.426 200.533 333.272 201.233 333.272ZM201.233 334.574C200.766 334.574 200.384 334.728 200.085 335.036C199.796 335.335 199.623 335.783 199.567 336.38H202.829C202.829 336.025 202.768 335.713 202.647 335.442C202.535 335.171 202.362 334.961 202.129 334.812C201.896 334.653 201.597 334.574 201.233 334.574ZM210.376 333.272C211.225 333.272 211.888 333.491 212.364 333.93C212.849 334.369 213.092 335.078 213.092 336.058V341H211.328V336.408C211.328 335.839 211.216 335.414 210.992 335.134C210.768 334.845 210.413 334.7 209.928 334.7C209.218 334.7 208.733 334.924 208.472 335.372C208.21 335.811 208.08 336.45 208.08 337.29V341H206.316V333.412H207.674L207.926 334.406H208.024C208.192 334.145 208.397 333.93 208.64 333.762C208.882 333.594 209.153 333.473 209.452 333.398C209.75 333.314 210.058 333.272 210.376 333.272ZM217.062 333.412V341H215.298V333.412H217.062ZM216.18 330.486C216.441 330.486 216.67 330.556 216.866 330.696C217.062 330.827 217.16 331.065 217.16 331.41C217.16 331.746 217.062 331.989 216.866 332.138C216.67 332.278 216.441 332.348 216.18 332.348C215.909 332.348 215.676 332.278 215.48 332.138C215.293 331.989 215.2 331.746 215.2 331.41C215.2 331.065 215.293 330.827 215.48 330.696C215.676 330.556 215.909 330.486 216.18 330.486ZM223.378 333.272C224.227 333.272 224.89 333.491 225.366 333.93C225.851 334.369 226.094 335.078 226.094 336.058V341H224.33V336.408C224.33 335.839 224.218 335.414 223.994 335.134C223.77 334.845 223.415 334.7 222.93 334.7C222.22 334.7 221.735 334.924 221.474 335.372C221.212 335.811 221.082 336.45 221.082 337.29V341H219.318V333.412H220.676L220.928 334.406H221.026C221.194 334.145 221.399 333.93 221.642 333.762C221.884 333.594 222.155 333.473 222.454 333.398C222.752 333.314 223.06 333.272 223.378 333.272ZM230.848 333.272C231.324 333.272 231.753 333.365 232.136 333.552C232.519 333.739 232.841 334.019 233.102 334.392H233.172L233.34 333.412H234.81V341.056C234.81 341.775 234.675 342.377 234.404 342.862C234.133 343.357 233.727 343.73 233.186 343.982C232.645 344.234 231.968 344.36 231.156 344.36C230.615 344.36 230.115 344.323 229.658 344.248C229.201 344.183 228.767 344.066 228.356 343.898V342.442C228.645 342.563 228.944 342.666 229.252 342.75C229.569 342.843 229.896 342.913 230.232 342.96C230.568 343.007 230.913 343.03 231.268 343.03C231.847 343.03 232.285 342.867 232.584 342.54C232.892 342.213 233.046 341.747 233.046 341.14V340.944C233.046 340.804 233.051 340.641 233.06 340.454C233.079 340.267 233.093 340.118 233.102 340.006H233.046C232.785 340.398 232.467 340.687 232.094 340.874C231.721 341.051 231.291 341.14 230.806 341.14C229.882 341.14 229.159 340.795 228.636 340.104C228.113 339.413 227.852 338.452 227.852 337.22C227.852 336.389 227.969 335.68 228.202 335.092C228.445 334.504 228.79 334.056 229.238 333.748C229.686 333.431 230.223 333.272 230.848 333.272ZM231.31 334.714C230.955 334.714 230.652 334.812 230.4 335.008C230.157 335.195 229.971 335.475 229.84 335.848C229.719 336.221 229.658 336.688 229.658 337.248C229.658 338.069 229.798 338.69 230.078 339.11C230.358 339.53 230.778 339.74 231.338 339.74C231.655 339.74 231.926 339.703 232.15 339.628C232.374 339.544 232.556 339.413 232.696 339.236C232.845 339.049 232.957 338.816 233.032 338.536C233.107 338.247 233.144 337.901 233.144 337.5V337.234C233.144 336.627 233.079 336.142 232.948 335.778C232.817 335.405 232.617 335.134 232.346 334.966C232.085 334.798 231.739 334.714 231.31 334.714ZM240.126 337.164C240.126 336.399 240.196 335.652 240.336 334.924C240.486 334.196 240.714 333.501 241.022 332.838C241.33 332.175 241.718 331.564 242.184 331.004H243.682C243.262 331.583 242.903 332.208 242.604 332.88C242.315 333.552 242.096 334.247 241.946 334.966C241.806 335.685 241.736 336.413 241.736 337.15C241.736 337.869 241.806 338.583 241.946 339.292C242.096 340.001 242.315 340.687 242.604 341.35C242.894 342.013 243.248 342.633 243.668 343.212H242.184C241.718 342.661 241.33 342.059 241.022 341.406C240.714 340.762 240.486 340.081 240.336 339.362C240.196 338.643 240.126 337.911 240.126 337.164ZM246.863 330.864C247.619 330.864 248.189 331.139 248.571 331.69C248.963 332.231 249.159 332.997 249.159 333.986C249.159 334.975 248.973 335.75 248.599 336.31C248.235 336.861 247.657 337.136 246.863 337.136C246.387 337.136 245.981 337.01 245.645 336.758C245.309 336.506 245.057 336.147 244.889 335.68C244.721 335.204 244.637 334.639 244.637 333.986C244.637 332.997 244.815 332.231 245.169 331.69C245.524 331.139 246.089 330.864 246.863 330.864ZM246.877 332.082C246.607 332.082 246.406 332.241 246.275 332.558C246.154 332.875 246.093 333.351 246.093 333.986C246.093 334.63 246.154 335.115 246.275 335.442C246.406 335.759 246.607 335.918 246.877 335.918C247.157 335.918 247.363 335.759 247.493 335.442C247.624 335.115 247.689 334.635 247.689 334C247.689 333.356 247.624 332.875 247.493 332.558C247.363 332.241 247.157 332.082 246.877 332.082ZM253.709 331.004L248.165 341H246.737L252.281 331.004H253.709ZM253.541 334.854C254.036 334.854 254.451 334.98 254.787 335.232C255.123 335.475 255.38 335.829 255.557 336.296C255.735 336.753 255.823 337.313 255.823 337.976C255.823 338.965 255.637 339.74 255.263 340.3C254.899 340.851 254.321 341.126 253.527 341.126C253.051 341.126 252.645 341 252.309 340.748C251.973 340.496 251.721 340.137 251.553 339.67C251.385 339.194 251.301 338.629 251.301 337.976C251.301 336.987 251.479 336.221 251.833 335.68C252.197 335.129 252.767 334.854 253.541 334.854ZM253.541 336.086C253.271 336.086 253.07 336.245 252.939 336.562C252.818 336.87 252.757 337.346 252.757 337.99C252.757 338.634 252.818 339.119 252.939 339.446C253.07 339.763 253.271 339.922 253.541 339.922C253.821 339.922 254.027 339.763 254.157 339.446C254.297 339.129 254.367 338.643 254.367 337.99C254.367 337.346 254.297 336.87 254.157 336.562C254.027 336.245 253.821 336.086 253.541 336.086ZM260.331 337.164C260.331 337.911 260.257 338.643 260.107 339.362C259.967 340.081 259.743 340.762 259.435 341.406C259.137 342.059 258.749 342.661 258.273 343.212H256.789C257.209 342.633 257.564 342.013 257.853 341.35C258.143 340.687 258.362 340.001 258.511 339.292C258.661 338.583 258.735 337.869 258.735 337.15C258.735 336.413 258.661 335.685 258.511 334.966C258.362 334.247 258.143 333.552 257.853 332.88C257.573 332.208 257.214 331.583 256.775 331.004H258.273C258.749 331.564 259.137 332.175 259.435 332.838C259.743 333.501 259.967 334.196 260.107 334.924C260.257 335.652 260.331 336.399 260.331 337.164Z" fill="#333333"/>
<path d="M57.276 312.704C57.276 313.4 57.224 314.02 57.12 314.564C57.016 315.108 56.848 315.572 56.616 315.956C56.392 316.332 56.096 316.62 55.728 316.82C55.368 317.02 54.932 317.12 54.42 317.12C53.78 317.12 53.248 316.944 52.824 316.592C52.408 316.24 52.096 315.736 51.888 315.08C51.688 314.416 51.588 313.624 51.588 312.704C51.588 311.776 51.68 310.984 51.864 310.328C52.056 309.672 52.36 309.172 52.776 308.828C53.192 308.476 53.74 308.3 54.42 308.3C55.06 308.3 55.592 308.476 56.016 308.828C56.44 309.172 56.756 309.672 56.964 310.328C57.172 310.984 57.276 311.776 57.276 312.704ZM52.644 312.704C52.644 313.488 52.7 314.14 52.812 314.66C52.932 315.18 53.12 315.572 53.376 315.836C53.64 316.092 53.988 316.22 54.42 316.22C54.852 316.22 55.196 316.092 55.452 315.836C55.716 315.58 55.908 315.192 56.028 314.672C56.148 314.144 56.208 313.488 56.208 312.704C56.208 311.92 56.148 311.272 56.028 310.76C55.908 310.24 55.716 309.852 55.452 309.596C55.196 309.332 54.852 309.2 54.42 309.2C53.988 309.2 53.64 309.332 53.376 309.596C53.12 309.852 52.932 310.24 52.812 310.76C52.7 311.272 52.644 311.92 52.644 312.704Z" fill="black"/>
<path d="M6.376 153.442C6.376 153.899 6.46 154.305 6.628 154.66C6.796 155.015 7.03867 155.318 7.356 155.57C7.67333 155.813 8.056 155.999 8.504 156.13C8.952 156.251 9.456 156.312 10.016 156.312C10.772 156.312 11.4207 156.209 11.962 156.004C12.494 155.799 12.9047 155.486 13.194 155.066C13.4833 154.637 13.628 154.1 13.628 153.456C13.628 153.027 13.586 152.616 13.502 152.224C13.4087 151.823 13.2873 151.403 13.138 150.964H14.664C14.832 151.375 14.9533 151.79 15.028 152.21C15.1027 152.621 15.14 153.097 15.14 153.638C15.14 154.665 14.93 155.514 14.51 156.186C14.0807 156.858 13.4833 157.357 12.718 157.684C11.9433 158.011 11.038 158.174 10.002 158.174C9.246 158.174 8.55533 158.071 7.93 157.866C7.30467 157.651 6.76333 157.348 6.306 156.956C5.84867 156.555 5.494 156.06 5.242 155.472C4.99 154.884 4.864 154.207 4.864 153.442C4.864 152.938 4.92467 152.443 5.046 151.958C5.158 151.463 5.31667 151.001 5.522 150.572L6.992 151.188C6.83333 151.543 6.69333 151.911 6.572 152.294C6.44133 152.667 6.376 153.05 6.376 153.442ZM15 147.229L7.412 150.113V148.251L11.794 146.739C11.9713 146.674 12.1673 146.613 12.382 146.557C12.5873 146.501 12.7927 146.455 12.998 146.417C13.194 146.371 13.3667 146.343 13.516 146.333V146.277C13.3573 146.259 13.18 146.226 12.984 146.179C12.7787 146.133 12.5733 146.081 12.368 146.025C12.1627 145.96 11.9713 145.899 11.794 145.843L7.412 144.331V142.469L15 145.353V147.229Z" fill="#333333"/>
</svg>
