<svg width="24" height="27" viewBox="0 0 24 27" fill="none" xmlns="http://www.w3.org/2000/svg">
<path d="M13.3309 1.07497C12.5624 0.348381 11.3603 0.348381 10.5918 1.07497L0.935936 10.2042C0.338506 10.769 0 11.5549 0 12.3771V23.4797C0 25.1312 1.33881 26.47 2.99034 26.47H5.98068C7.6322 26.47 8.97102 25.1312 8.97102 23.4797V18.4958C8.97102 17.9454 9.41729 17.4991 9.9678 17.4991H13.9549C14.5054 17.4991 14.9517 17.9454 14.9517 18.4958V23.4797C14.9517 25.1312 16.2906 26.47 17.942 26.47H20.9324C22.5838 26.47 23.9227 25.1312 23.9227 23.4797V12.3771C23.9227 11.5549 23.5842 10.769 22.9867 10.2042L13.3309 1.07497Z" fill="#CDCDCD"/>
</svg>
