<svg width="16" height="17" viewBox="0 0 16 17" fill="none" xmlns="http://www.w3.org/2000/svg">
<path d="M14.9202 12.5024L13.8854 11.0138C13.7441 10.8114 13.6681 10.5707 13.6675 10.3239V6.05152C13.6675 4.44656 13.03 2.90733 11.8951 1.77245C10.7602 0.637569 9.22098 0 7.61601 0C6.01105 0 4.47182 0.637569 3.33694 1.77245C2.20206 2.90733 1.56449 4.44656 1.56449 6.05152V10.3239C1.56391 10.5707 1.48789 10.8114 1.34664 11.0138L0.311825 12.5024C0.155139 12.6761 0.0521044 12.8913 0.0151812 13.1223C-0.021742 13.3532 0.00902762 13.5899 0.103769 13.8037C0.198511 14.0175 0.353166 14.1993 0.549034 14.327C0.744902 14.4548 0.973592 14.5231 1.20745 14.5237H4.65077C4.78966 15.2077 5.16075 15.8226 5.70115 16.2643C6.24156 16.706 6.91806 16.9473 7.61601 16.9473C8.31397 16.9473 8.99046 16.706 9.53087 16.2643C10.0713 15.8226 10.4424 15.2077 10.5813 14.5237H14.0246C14.2584 14.5231 14.4871 14.4548 14.683 14.327C14.8789 14.1993 15.0335 14.0175 15.1283 13.8037C15.223 13.5899 15.2538 13.3532 15.2168 13.1223C15.1799 12.8913 15.0769 12.6761 14.9202 12.5024ZM7.61601 15.734C7.24146 15.7329 6.87639 15.616 6.57088 15.3993C6.26536 15.1827 6.03433 14.8768 5.90948 14.5237H9.32254C9.19769 14.8768 8.96667 15.1827 8.66115 15.3993C8.35563 15.616 7.99057 15.7329 7.61601 15.734ZM1.20745 13.3133C1.2348 13.288 1.25917 13.2595 1.28007 13.2286L2.33909 11.7036C2.6216 11.2989 2.77363 10.8175 2.77479 10.3239V6.05152C2.77479 4.76755 3.28485 3.53617 4.19275 2.62826C5.10066 1.72036 6.33204 1.2103 7.61601 1.2103C8.89998 1.2103 10.1314 1.72036 11.0393 2.62826C11.9472 3.53617 12.4572 4.76755 12.4572 6.05152V10.3239C12.4584 10.8175 12.6104 11.2989 12.8929 11.7036L13.952 13.2286C13.9729 13.2595 13.9972 13.288 14.0246 13.3133H1.20745Z" fill="#272727"/>
</svg>
