<svg width="53" height="54" viewBox="0 0 53 54" fill="none" xmlns="http://www.w3.org/2000/svg">
<path d="M0.601562 6.75C0.601562 3.02695 3.62852 0 7.35156 0H24.2266V13.5C24.2266 15.3668 25.7348 16.875 27.6016 16.875H41.1016V32.0625H19.1641C15.441 32.0625 12.4141 35.0895 12.4141 38.8125V54H7.35156C3.62852 54 0.601562 50.973 0.601562 47.25V6.75ZM41.1016 13.5H27.6016V0L41.1016 13.5ZM19.1641 37.125H22.5391C25.798 37.125 28.4453 39.7723 28.4453 43.0312C28.4453 46.2902 25.798 48.9375 22.5391 48.9375H20.8516V52.3125C20.8516 53.2406 20.0922 54 19.1641 54C18.2359 54 17.4766 53.2406 17.4766 52.3125V47.25V38.8125C17.4766 37.8844 18.2359 37.125 19.1641 37.125ZM22.5391 45.5625C23.9418 45.5625 25.0703 44.434 25.0703 43.0312C25.0703 41.6285 23.9418 40.5 22.5391 40.5H20.8516V45.5625H22.5391ZM32.6641 37.125H36.0391C38.834 37.125 41.1016 39.3926 41.1016 42.1875V48.9375C41.1016 51.7324 38.834 54 36.0391 54H32.6641C31.7359 54 30.9766 53.2406 30.9766 52.3125V38.8125C30.9766 37.8844 31.7359 37.125 32.6641 37.125ZM36.0391 50.625C36.9672 50.625 37.7266 49.8656 37.7266 48.9375V42.1875C37.7266 41.2594 36.9672 40.5 36.0391 40.5H34.3516V50.625H36.0391ZM44.4766 38.8125C44.4766 37.8844 45.2359 37.125 46.1641 37.125H51.2266C52.1547 37.125 52.9141 37.8844 52.9141 38.8125C52.9141 39.7406 52.1547 40.5 51.2266 40.5H47.8516V43.875H51.2266C52.1547 43.875 52.9141 44.6344 52.9141 45.5625C52.9141 46.4906 52.1547 47.25 51.2266 47.25H47.8516V52.3125C47.8516 53.2406 47.0922 54 46.1641 54C45.2359 54 44.4766 53.2406 44.4766 52.3125V45.5625V38.8125Z" fill="#004B8D"/>
</svg>
