<svg width="16" height="15" viewBox="0 0 16 15" fill="none" xmlns="http://www.w3.org/2000/svg">
<path d="M1.33331 2.49992C1.33331 1.57944 2.07951 0.833252 2.99998 0.833252H9.80962C10.2517 0.833252 10.6756 1.00885 10.9881 1.32141L14.1785 4.51176C14.4911 4.82432 14.6666 5.24825 14.6666 5.69027V12.4999C14.6666 13.4204 13.9205 14.1666 13 14.1666H2.99998C2.07951 14.1666 1.33331 13.4204 1.33331 12.4999V2.49992Z" stroke="#344051" stroke-width="1.5" stroke-linecap="round" stroke-linejoin="round"/>
<path d="M4.66665 0.833252H8.83331V3.33325C8.83331 3.79349 8.46022 4.16659 7.99998 4.16659H5.49998C5.03974 4.16659 4.66665 3.79349 4.66665 3.33325V0.833252Z" stroke="#344051" stroke-width="1.5" stroke-linecap="round" stroke-linejoin="round"/>
<path d="M3.83331 9.99992C3.83331 9.07944 4.57951 8.33325 5.49998 8.33325H10.5C11.4205 8.33325 12.1666 9.07944 12.1666 9.99992V14.1666H3.83331V9.99992Z" stroke="#344051" stroke-width="1.5" stroke-linecap="round" stroke-linejoin="round"/>
</svg>
