<svg width="14" height="21" viewBox="0 0 14 21" fill="none" xmlns="http://www.w3.org/2000/svg">
<path d="M6.94892 0.714247C5.18794 0.714247 3.60177 1.01416 2.38028 1.55165C1.76952 1.82039 1.24494 2.14693 0.839368 2.57053C0.43378 2.99414 0.142853 3.55185 0.142853 4.16836V17.0751C0.142862 17.6964 0.440684 18.2551 0.85149 18.6776C1.2623 19.1001 1.79213 19.4252 2.40827 19.6932C3.64051 20.2292 5.2388 20.5311 6.99976 20.5311C8.76074 20.5311 10.3571 20.2292 11.5894 19.6932C12.2055 19.4252 12.7358 19.1001 13.1466 18.6776C13.5574 18.2551 13.8571 17.6964 13.8571 17.0751V17.0742V17.0732V17.0723V17.0714V17.0704V17.0695L13.7564 4.16836V4.16466V4.16321C13.7546 3.54875 13.4643 2.99294 13.0599 2.57052C12.6543 2.14691 12.1297 1.82038 11.5189 1.55163C10.2975 1.01415 8.70989 0.714248 6.94892 0.714247ZM6.94892 2.38578C8.51336 2.38579 9.91241 2.67135 10.8453 3.08183C11.3117 3.28707 11.658 3.52438 11.8525 3.7275C12.047 3.93061 12.0848 4.06159 12.0848 4.16836C12.0848 4.27512 12.047 4.40751 11.8525 4.61062C11.658 4.81373 11.3117 5.05104 10.8453 5.25628C9.91241 5.66676 8.51336 5.9528 6.94892 5.9528C5.38449 5.9528 3.98681 5.66676 3.05394 5.25628C2.5875 5.05104 2.24166 4.81373 2.04719 4.61062C1.85354 4.40837 1.81472 4.27629 1.81439 4.16976V4.16832C1.81439 4.06155 1.85276 3.93057 2.04719 3.72745C2.24166 3.52434 2.5875 3.28703 3.05394 3.08179C3.98681 2.67131 5.38449 2.38578 6.94892 2.38578ZM12.1026 6.49489L12.1837 17.0751C12.1837 17.1771 12.1462 17.308 11.9477 17.5122C11.7491 17.7165 11.3967 17.9552 10.9232 18.1612C9.9762 18.5731 8.5642 18.8591 6.99976 18.8591C5.43533 18.8591 4.02191 18.5731 3.07492 18.1612C2.60142 17.9552 2.24902 17.7165 2.05044 17.5122C1.85187 17.308 1.81438 17.1771 1.81438 17.0751V6.50516C1.99328 6.60589 2.18213 6.69928 2.38028 6.78647C3.60177 7.32396 5.18794 7.62434 6.9489 7.62434C8.70988 7.62434 10.2975 7.32396 11.5189 6.78647C11.7237 6.69638 11.9184 6.5995 12.1026 6.49489Z" fill="#3A3B3D"/>
<path d="M4.08379 8.23169C3.86214 8.23175 3.6496 8.31982 3.49287 8.47654C3.33615 8.63327 3.24808 8.84582 3.24802 9.06746V15.0395C3.24808 15.2611 3.33615 15.4737 3.49287 15.6304C3.6496 15.7871 3.86214 15.8752 4.08379 15.8753C4.30543 15.8752 4.51798 15.7871 4.6747 15.6304C4.83142 15.4737 4.91949 15.2611 4.91955 15.0395V9.06746C4.91949 8.84582 4.83142 8.63327 4.6747 8.47655C4.51798 8.31983 4.30543 8.23175 4.08379 8.23169Z" fill="#3A3B3D"/>
<path d="M6.94881 8.94934C6.72716 8.9494 6.51461 9.03748 6.35789 9.1942C6.20117 9.35093 6.1131 9.56348 6.11304 9.78512V15.7554C6.1131 15.977 6.20117 16.1896 6.35789 16.3463C6.51461 16.503 6.72717 16.5911 6.94881 16.5912C7.0587 16.5914 7.16756 16.5699 7.26915 16.528C7.37074 16.4861 7.46306 16.4246 7.54085 16.3469C7.61864 16.2693 7.68037 16.1771 7.72249 16.0756C7.76461 15.9741 7.78631 15.8653 7.78634 15.7554V9.78512C7.78631 9.67522 7.76461 9.56641 7.72249 9.46491C7.68037 9.3634 7.61865 9.2712 7.54086 9.19358C7.46307 9.11595 7.37074 9.05442 7.26915 9.01252C7.16756 8.97061 7.0587 8.94914 6.94881 8.94934Z" fill="#3A3B3D"/>
<path d="M9.81615 8.23169C9.59451 8.23175 9.38195 8.31983 9.22523 8.47655C9.06851 8.63327 8.98044 8.84582 8.98038 9.06746V15.0395C8.98044 15.2611 9.06851 15.4737 9.22523 15.6304C9.38195 15.7871 9.59451 15.8752 9.81615 15.8753C10.0378 15.8752 10.2503 15.7871 10.4071 15.6304C10.5638 15.4737 10.6519 15.2611 10.6519 15.0395V9.06746C10.6519 8.84582 10.5638 8.63327 10.4071 8.47654C10.2503 8.31982 10.0378 8.23175 9.81615 8.23169Z" fill="#3A3B3D"/>
</svg>
