<svg width="18" height="18" viewBox="0 0 18 18" fill="none" xmlns="http://www.w3.org/2000/svg">
<path d="M2.39431 8.98098L2.39395 8.9905V9.00002C2.39395 12.6134 5.3329 15.5524 8.94633 15.5524C12.5597 15.5524 15.4987 12.6134 15.4987 9.00008V8.9906L15.4983 8.98112C15.1711 0.324031 2.72296 0.320965 2.39431 8.98098ZM8.95546 0.930555C13.4118 0.935476 17.0158 4.54315 17.0158 9.00002C17.0158 13.4576 13.4112 17.0646 8.95555 17.0695C-1.74362 16.6711 -1.74533 1.33025 8.95546 0.930555Z" fill="#3A3B3D" stroke="#3A3B3D" stroke-width="1.00392"/>
<path d="M8.94634 8.49585C8.66832 8.49585 8.44214 8.72203 8.44214 9.00005C8.46745 9.66802 9.42533 9.66785 9.45054 9.00005C9.45054 8.72203 9.22436 8.49585 8.94634 8.49585Z" fill="#3A3B3D"/>
<path d="M13.29 6.44258C12.8584 5.71246 12.2483 5.10009 11.5199 4.66594C11.2679 4.91946 11.1105 5.07774 11.1095 5.07882C9.9148 6.27347 7.97789 6.27347 6.78324 5.07882C6.64283 4.93714 6.5067 4.79969 6.37369 4.66541C5.64485 5.09962 5.03429 5.7123 4.60263 6.44278C4.86213 6.70251 5.02448 6.86504 5.02512 6.86571C6.21977 8.06036 6.21977 9.9973 5.02512 11.192C4.87903 11.336 4.74498 11.4682 4.62179 11.5897C5.05218 12.3057 5.6552 12.9064 6.37292 13.3342C6.49796 13.2083 6.6344 13.071 6.78324 12.9212C7.97789 11.7266 9.9148 11.7266 11.1095 12.9212C11.1105 12.9223 11.2679 13.0806 11.5199 13.3341C12.2376 12.9063 12.8405 12.3056 13.2709 11.5897C13.1476 11.4681 13.0136 11.3359 12.8676 11.1919C11.6729 9.99727 11.6729 8.06033 12.8676 6.86567C13.0123 6.72073 13.1527 6.58006 13.29 6.44258ZM8.94633 10.5126C8.11231 10.5126 7.43372 9.83411 7.43372 9.00003C7.50979 6.99609 10.3832 6.99667 10.4589 9.00006C10.4589 9.83411 9.78038 10.5126 8.94633 10.5126Z" fill="#3A3B3D"/>
<path d="M1.33906 3.1758C1.85493 2.50481 2.45012 1.90935 3.12249 1.39244C2.96602 1.23604 2.81281 1.0832 2.66172 0.932775C2.16948 0.44054 1.37133 0.44054 0.879095 0.932775C0.386859 1.42501 0.386859 2.22316 0.879095 2.7154C0.880069 2.71637 1.05792 2.89442 1.33906 3.1758Z" fill="#3A3B3D"/>
<path d="M16.5533 3.17543C16.7097 3.01899 16.8628 2.86602 17.0135 2.7154C17.5058 2.22313 17.5058 1.42501 17.0135 0.932775C16.5212 0.44054 15.7231 0.44054 15.2309 0.932775C15.2298 0.933817 15.0524 1.11227 14.7723 1.39412C15.4269 1.89758 16.0253 2.48878 16.5533 3.17543Z" fill="#3A3B3D"/>
<path d="M1.34279 14.8292C1.1955 14.9739 1.04125 15.1254 0.879095 15.2847C0.386859 15.777 0.386859 16.5751 0.879095 17.0673C1.37133 17.5596 2.16948 17.5596 2.66172 17.0673C2.82188 16.9058 2.97422 16.7522 3.1197 16.6055C2.45099 16.0911 1.85765 15.498 1.34279 14.8292Z" fill="#3A3B3D"/>
<path d="M16.5499 14.8292C16.0351 15.4978 15.4417 16.0911 14.7724 16.606C15.0525 16.8878 15.2299 17.0662 15.231 17.0673C15.7232 17.5596 16.5213 17.5596 17.0136 17.0673C17.5058 16.575 17.5058 15.7769 17.0136 15.2847C16.8514 15.1254 16.6972 14.9739 16.5499 14.8292Z" fill="#3A3B3D"/>
</svg>
