<svg width="20" height="20" viewBox="0 0 20 20" fill="none" xmlns="http://www.w3.org/2000/svg">
<path d="M0 16.125C0 16.8164 0.558594 17.375 1.25 17.375H3.38672C3.86719 18.4805 4.96875 19.25 6.25 19.25C7.53125 19.25 8.63281 18.4805 9.11328 17.375H18.75C19.4414 17.375 20 16.8164 20 16.125C20 15.4336 19.4414 14.875 18.75 14.875H9.11328C8.63281 13.7695 7.53125 13 6.25 13C4.96875 13 3.86719 13.7695 3.38672 14.875H1.25C0.558594 14.875 0 15.4336 0 16.125ZM5 16.125C5 15.7935 5.1317 15.4755 5.36612 15.2411C5.60054 15.0067 5.91848 14.875 6.25 14.875C6.58152 14.875 6.89946 15.0067 7.13388 15.2411C7.3683 15.4755 7.5 15.7935 7.5 16.125C7.5 16.4565 7.3683 16.7745 7.13388 17.0089C6.89946 17.2433 6.58152 17.375 6.25 17.375C5.91848 17.375 5.60054 17.2433 5.36612 17.0089C5.1317 16.7745 5 16.4565 5 16.125ZM12.5 9.875C12.5 9.54348 12.6317 9.22554 12.8661 8.99112C13.1005 8.7567 13.4185 8.625 13.75 8.625C14.0815 8.625 14.3995 8.7567 14.6339 8.99112C14.8683 9.22554 15 9.54348 15 9.875C15 10.2065 14.8683 10.5245 14.6339 10.7589C14.3995 10.9933 14.0815 11.125 13.75 11.125C13.4185 11.125 13.1005 10.9933 12.8661 10.7589C12.6317 10.5245 12.5 10.2065 12.5 9.875ZM13.75 6.75C12.4688 6.75 11.3672 7.51953 10.8867 8.625H1.25C0.558594 8.625 0 9.18359 0 9.875C0 10.5664 0.558594 11.125 1.25 11.125H10.8867C11.3672 12.2305 12.4688 13 13.75 13C15.0312 13 16.1328 12.2305 16.6133 11.125H18.75C19.4414 11.125 20 10.5664 20 9.875C20 9.18359 19.4414 8.625 18.75 8.625H16.6133C16.1328 7.51953 15.0312 6.75 13.75 6.75ZM7.5 4.875C7.16848 4.875 6.85054 4.7433 6.61612 4.50888C6.3817 4.27446 6.25 3.95652 6.25 3.625C6.25 3.29348 6.3817 2.97554 6.61612 2.74112C6.85054 2.5067 7.16848 2.375 7.5 2.375C7.83152 2.375 8.14946 2.5067 8.38388 2.74112C8.6183 2.97554 8.75 3.29348 8.75 3.625C8.75 3.95652 8.6183 4.27446 8.38388 4.50888C8.14946 4.7433 7.83152 4.875 7.5 4.875ZM10.3633 2.375C9.88281 1.26953 8.78125 0.5 7.5 0.5C6.21875 0.5 5.11719 1.26953 4.63672 2.375H1.25C0.558594 2.375 0 2.93359 0 3.625C0 4.31641 0.558594 4.875 1.25 4.875H4.63672C5.11719 5.98047 6.21875 6.75 7.5 6.75C8.78125 6.75 9.88281 5.98047 10.3633 4.875H18.75C19.4414 4.875 20 4.31641 20 3.625C20 2.93359 19.4414 2.375 18.75 2.375H10.3633Z" fill="white"/>
</svg>
