<svg width="30" height="25" viewBox="0 0 30 25" fill="none" xmlns="http://www.w3.org/2000/svg">
<path d="M0 4.20833C0 2.36979 1.49479 0.875 3.33333 0.875H26.6667C28.5052 0.875 30 2.36979 30 4.20833V20.875C30 22.7135 28.5052 24.2083 26.6667 24.2083H3.33333C1.49479 24.2083 0 22.7135 0 20.875V4.20833ZM6.66667 14.2083C7.10869 14.2083 7.53262 14.0327 7.84518 13.7202C8.15774 13.4076 8.33333 12.9837 8.33333 12.5417C8.33333 12.0996 8.15774 11.6757 7.84518 11.3632C7.53262 11.0506 7.10869 10.875 6.66667 10.875C6.22464 10.875 5.80072 11.0506 5.48816 11.3632C5.17559 11.6757 5 12.0996 5 12.5417C5 12.9837 5.17559 13.4076 5.48816 13.7202C5.80072 14.0327 6.22464 14.2083 6.66667 14.2083ZM8.33333 7.54167C8.33333 7.09964 8.15774 6.67572 7.84518 6.36316C7.53262 6.0506 7.10869 5.875 6.66667 5.875C6.22464 5.875 5.80072 6.0506 5.48816 6.36316C5.17559 6.67572 5 7.09964 5 7.54167C5 7.98369 5.17559 8.40762 5.48816 8.72018C5.80072 9.03274 6.22464 9.20833 6.66667 9.20833C7.10869 9.20833 7.53262 9.03274 7.84518 8.72018C8.15774 8.40762 8.33333 7.98369 8.33333 7.54167ZM6.66667 19.2083C7.10869 19.2083 7.53262 19.0327 7.84518 18.7202C8.15774 18.4076 8.33333 17.9837 8.33333 17.5417C8.33333 17.0996 8.15774 16.6757 7.84518 16.3632C7.53262 16.0506 7.10869 15.875 6.66667 15.875C6.22464 15.875 5.80072 16.0506 5.48816 16.3632C5.17559 16.6757 5 17.0996 5 17.5417C5 17.9837 5.17559 18.4076 5.48816 18.7202C5.80072 19.0327 6.22464 19.2083 6.66667 19.2083ZM11.6667 6.29167C10.974 6.29167 10.4167 6.84896 10.4167 7.54167C10.4167 8.23438 10.974 8.79167 11.6667 8.79167H23.3333C24.026 8.79167 24.5833 8.23438 24.5833 7.54167C24.5833 6.84896 24.026 6.29167 23.3333 6.29167H11.6667ZM11.6667 11.2917C10.974 11.2917 10.4167 11.849 10.4167 12.5417C10.4167 13.2344 10.974 13.7917 11.6667 13.7917H23.3333C24.026 13.7917 24.5833 13.2344 24.5833 12.5417C24.5833 11.849 24.026 11.2917 23.3333 11.2917H11.6667ZM11.6667 16.2917C10.974 16.2917 10.4167 16.849 10.4167 17.5417C10.4167 18.2344 10.974 18.7917 11.6667 18.7917H23.3333C24.026 18.7917 24.5833 18.2344 24.5833 17.5417C24.5833 16.849 24.026 16.2917 23.3333 16.2917H11.6667Z" fill="white"/>
</svg>
