<svg width="30" height="21" viewBox="0 0 30 21" fill="none" xmlns="http://www.w3.org/2000/svg">
<path d="M3.33333 0.875C1.49479 0.875 0 2.36979 0 4.20833V17.5417C0 19.3802 1.49479 20.875 3.33333 20.875H26.6667C28.5052 20.875 30 19.3802 30 17.5417V4.20833C30 2.36979 28.5052 0.875 26.6667 0.875H3.33333ZM4.16667 4.20833H5.83333C6.29167 4.20833 6.66667 4.58333 6.66667 5.04167V6.70833C6.66667 7.16667 6.29167 7.54167 5.83333 7.54167H4.16667C3.70833 7.54167 3.33333 7.16667 3.33333 6.70833V5.04167C3.33333 4.58333 3.70833 4.20833 4.16667 4.20833ZM3.33333 10.0417C3.33333 9.58333 3.70833 9.20833 4.16667 9.20833H5.83333C6.29167 9.20833 6.66667 9.58333 6.66667 10.0417V11.7083C6.66667 12.1667 6.29167 12.5417 5.83333 12.5417H4.16667C3.70833 12.5417 3.33333 12.1667 3.33333 11.7083V10.0417ZM4.16667 14.2083H5.83333C6.29167 14.2083 6.66667 14.5833 6.66667 15.0417V16.7083C6.66667 17.1667 6.29167 17.5417 5.83333 17.5417H4.16667C3.70833 17.5417 3.33333 17.1667 3.33333 16.7083V15.0417C3.33333 14.5833 3.70833 14.2083 4.16667 14.2083ZM8.33333 5.04167C8.33333 4.58333 8.70833 4.20833 9.16667 4.20833H10.8333C11.2917 4.20833 11.6667 4.58333 11.6667 5.04167V6.70833C11.6667 7.16667 11.2917 7.54167 10.8333 7.54167H9.16667C8.70833 7.54167 8.33333 7.16667 8.33333 6.70833V5.04167ZM9.16667 9.20833H10.8333C11.2917 9.20833 11.6667 9.58333 11.6667 10.0417V11.7083C11.6667 12.1667 11.2917 12.5417 10.8333 12.5417H9.16667C8.70833 12.5417 8.33333 12.1667 8.33333 11.7083V10.0417C8.33333 9.58333 8.70833 9.20833 9.16667 9.20833ZM8.33333 15.0417C8.33333 14.5833 8.70833 14.2083 9.16667 14.2083H20.8333C21.2917 14.2083 21.6667 14.5833 21.6667 15.0417V16.7083C21.6667 17.1667 21.2917 17.5417 20.8333 17.5417H9.16667C8.70833 17.5417 8.33333 17.1667 8.33333 16.7083V15.0417ZM14.1667 4.20833H15.8333C16.2917 4.20833 16.6667 4.58333 16.6667 5.04167V6.70833C16.6667 7.16667 16.2917 7.54167 15.8333 7.54167H14.1667C13.7083 7.54167 13.3333 7.16667 13.3333 6.70833V5.04167C13.3333 4.58333 13.7083 4.20833 14.1667 4.20833ZM13.3333 10.0417C13.3333 9.58333 13.7083 9.20833 14.1667 9.20833H15.8333C16.2917 9.20833 16.6667 9.58333 16.6667 10.0417V11.7083C16.6667 12.1667 16.2917 12.5417 15.8333 12.5417H14.1667C13.7083 12.5417 13.3333 12.1667 13.3333 11.7083V10.0417ZM19.1667 4.20833H20.8333C21.2917 4.20833 21.6667 4.58333 21.6667 5.04167V6.70833C21.6667 7.16667 21.2917 7.54167 20.8333 7.54167H19.1667C18.7083 7.54167 18.3333 7.16667 18.3333 6.70833V5.04167C18.3333 4.58333 18.7083 4.20833 19.1667 4.20833ZM18.3333 10.0417C18.3333 9.58333 18.7083 9.20833 19.1667 9.20833H20.8333C21.2917 9.20833 21.6667 9.58333 21.6667 10.0417V11.7083C21.6667 12.1667 21.2917 12.5417 20.8333 12.5417H19.1667C18.7083 12.5417 18.3333 12.1667 18.3333 11.7083V10.0417ZM24.1667 4.20833H25.8333C26.2917 4.20833 26.6667 4.58333 26.6667 5.04167V6.70833C26.6667 7.16667 26.2917 7.54167 25.8333 7.54167H24.1667C23.7083 7.54167 23.3333 7.16667 23.3333 6.70833V5.04167C23.3333 4.58333 23.7083 4.20833 24.1667 4.20833ZM23.3333 10.0417C23.3333 9.58333 23.7083 9.20833 24.1667 9.20833H25.8333C26.2917 9.20833 26.6667 9.58333 26.6667 10.0417V11.7083C26.6667 12.1667 26.2917 12.5417 25.8333 12.5417H24.1667C23.7083 12.5417 23.3333 12.1667 23.3333 11.7083V10.0417ZM24.1667 14.2083H25.8333C26.2917 14.2083 26.6667 14.5833 26.6667 15.0417V16.7083C26.6667 17.1667 26.2917 17.5417 25.8333 17.5417H24.1667C23.7083 17.5417 23.3333 17.1667 23.3333 16.7083V15.0417C23.3333 14.5833 23.7083 14.2083 24.1667 14.2083Z" fill="white"/>
</svg>
