<svg width="34" height="33" viewBox="0 0 34 33" fill="none" xmlns="http://www.w3.org/2000/svg">
<circle cx="16.7205" cy="16.5" r="16.5" fill="#00805A"/>
<path d="M17.2338 17.488C17.2338 18.2627 17.1358 18.9673 16.9398 19.602C16.7531 20.2273 16.4638 20.7687 16.0718 21.226C15.6891 21.6833 15.1991 22.0287 14.6018 22.262L17.0098 24.88H14.6298L12.7678 22.64C12.7304 22.64 12.6884 22.64 12.6418 22.64C12.6044 22.64 12.5671 22.64 12.5298 22.64C11.7271 22.64 11.0271 22.5187 10.4298 22.276C9.84176 22.024 9.35642 21.674 8.97376 21.226C8.59109 20.7687 8.30176 20.2227 8.10576 19.588C7.91909 18.9533 7.82576 18.2487 7.82576 17.474C7.82576 16.438 7.99376 15.5373 8.32976 14.772C8.67509 14.0067 9.19309 13.414 9.88376 12.994C10.5838 12.5647 11.4704 12.35 12.5438 12.35C13.5984 12.35 14.4711 12.5647 15.1618 12.994C15.8524 13.414 16.3704 14.0113 16.7158 14.786C17.0611 15.5513 17.2338 16.452 17.2338 17.488ZM9.71576 17.488C9.71576 18.244 9.81376 18.8927 10.0098 19.434C10.2151 19.9753 10.5231 20.3907 10.9338 20.68C11.3538 20.9693 11.8858 21.114 12.5298 21.114C13.1924 21.114 13.7291 20.9693 14.1398 20.68C14.5504 20.3907 14.8538 19.9753 15.0498 19.434C15.2458 18.8927 15.3438 18.244 15.3438 17.488C15.3438 16.3587 15.1244 15.472 14.6858 14.828C14.2471 14.184 13.5331 13.862 12.5438 13.862C11.8904 13.862 11.3538 14.0067 10.9338 14.296C10.5231 14.5853 10.2151 15.0007 10.0098 15.542C9.81376 16.0833 9.71576 16.732 9.71576 17.488ZM19.3623 22.5V12.504H21.1543V20.988H25.3263V22.5H19.3623Z" fill="white"/>
</svg>
